<svg xmlns="http://www.w3.org/2000/svg" xmlns:xlink="http://www.w3.org/1999/xlink" width="470.897" height="285.994" viewBox="0 0 470.897 285.994">
  <defs>
    <clipPath id="clip-path">
      <rect id="Rectangle_6937" data-name="Rectangle 6937" width="44.997" height="202.005" fill="none"/>
    </clipPath>
    <clipPath id="clip-path-2">
      <rect id="Rectangle_6940" data-name="Rectangle 6940" width="41.045" height="106.182" fill="none"/>
    </clipPath>
    <clipPath id="clip-path-3">
      <rect id="Rectangle_6946" data-name="Rectangle 6946" width="44.536" height="113.033" fill="none"/>
    </clipPath>
    <clipPath id="clip-path-4">
      <rect id="Rectangle_6951" data-name="Rectangle 6951" width="38.607" height="40.214" fill="none"/>
    </clipPath>
    <clipPath id="clip-path-5">
      <rect id="Rectangle_6962" data-name="Rectangle 6962" width="24.743" height="140.203" fill="none"/>
    </clipPath>
    <clipPath id="clip-path-6">
      <rect id="Rectangle_6967" data-name="Rectangle 6967" width="34.105" height="65.755" fill="none"/>
    </clipPath>
    <clipPath id="clip-path-7">
      <rect id="Rectangle_6975" data-name="Rectangle 6975" width="31.415" height="39.619" fill="none"/>
    </clipPath>
    <clipPath id="clip-path-8">
      <rect id="Rectangle_6976" data-name="Rectangle 6976" width="26.422" height="36.438" fill="none"/>
    </clipPath>
    <clipPath id="clip-path-9">
      <rect id="Rectangle_6980" data-name="Rectangle 6980" width="48.014" height="58.194" fill="none"/>
    </clipPath>
    <clipPath id="clip-path-10">
      <rect id="Rectangle_6998" data-name="Rectangle 6998" width="16.878" height="11.161" fill="none"/>
    </clipPath>
    <clipPath id="clip-path-11">
      <rect id="Rectangle_6999" data-name="Rectangle 6999" width="35.206" height="44.65" fill="none"/>
    </clipPath>
    <clipPath id="clip-path-12">
      <rect id="Rectangle_7001" data-name="Rectangle 7001" width="17.218" height="9.749" fill="none"/>
    </clipPath>
    <clipPath id="clip-path-13">
      <rect id="Rectangle_7004" data-name="Rectangle 7004" width="32.25" height="10.01" fill="none"/>
    </clipPath>
    <clipPath id="clip-path-14">
      <rect id="Rectangle_7005" data-name="Rectangle 7005" width="22.902" height="55.726" fill="none"/>
    </clipPath>
    <clipPath id="clip-path-15">
      <rect id="Rectangle_7018" data-name="Rectangle 7018" width="66.217" height="57.867" fill="none"/>
    </clipPath>
    <clipPath id="clip-path-16">
      <rect id="Rectangle_7019" data-name="Rectangle 7019" width="9.557" height="29.975" fill="none"/>
    </clipPath>
  </defs>
  <g id="Group_48366" data-name="Group 48366" transform="translate(-5637.283 1646.216)">
    <g id="Group_48366-2" data-name="Group 48366" transform="translate(4892 -1837.219)">
      <path id="Path_7452" data-name="Path 7452" d="M406.048,169.279c.151-2.054.242-4.125.242-6.225,0-37.356-24.163-68.206-55.5-73.064A101.132,101.132,0,0,0,170.817,38.57a63.469,63.469,0,0,0-73.58,96.96C35.406,135.9,0,161.546,0,193.143c0,31.829,36.131,57.63,98.589,57.63a216.672,216.672,0,0,0,30.3-2.109c7.726,13.818,56.3,24.468,115.1,24.468,54.583,0,87.381-24.979,99.85-37.348,11.219,4.855,37.672,23.49,52.216,23.49,38.878,0,70.395-20.25,70.395-45.229,0-22.8-26.26-41.65-60.4-44.768" transform="translate(745.283 197.434)" fill="#ed2225"/>
    </g>
    <g id="Group_48367" data-name="Group 48367" transform="translate(5530.48 -1684.296)">
      <g id="Group_48352" data-name="Group 48352">
        <rect id="Rectangle_6929" data-name="Rectangle 6929" width="86.859" height="162.387" transform="translate(243.139 150.534)" fill="#6b6b6b"/>
        <rect id="Rectangle_6930" data-name="Rectangle 6930" width="89.996" height="128.637" transform="translate(241.572 181.35)" fill="#fff"/>
        <rect id="Rectangle_6931" data-name="Rectangle 6931" width="89.996" height="67.498" transform="translate(241.572 110.916)" fill="#fff"/>
        <rect id="Rectangle_6932" data-name="Rectangle 6932" width="89.996" height="5.87" transform="translate(241.572 110.916)" fill="#d4d4d4"/>
        <rect id="Rectangle_6933" data-name="Rectangle 6933" width="4.402" height="41.574" transform="translate(246.95 190.153)" fill="#969696"/>
        <rect id="Rectangle_6934" data-name="Rectangle 6934" width="4.402" height="26.168" transform="translate(246.95 131.213)" fill="#969696"/>
        <rect id="Rectangle_6935" data-name="Rectangle 6935" width="22.881" height="10.089" transform="translate(297.314 118.45)" fill="#d4d4d4"/>
        <rect id="Rectangle_6936" data-name="Rectangle 6936" width="15.184" height="8.315" transform="translate(303.776 119.338)" fill="#34495e"/>
        <path id="Path_7241" data-name="Path 7241" d="M193.456,78.341a1.467,1.467,0,1,1-1.467-1.467,1.467,1.467,0,0,1,1.467,1.467" transform="translate(115.547 46.622)" fill="#577b9e"/>
        <path id="Path_7242" data-name="Path 7242" d="M200.35,80.911h-6.293a.348.348,0,0,1-.347-.349V75.4a.349.349,0,0,1,.347-.349h6.293a.351.351,0,0,1,.35.349v5.165a.35.35,0,0,1-.35.349" transform="translate(117.48 45.515)" fill="#577b9e"/>
        <path id="Path_7243" data-name="Path 7243" d="M193.908,76.884h-3.446a.264.264,0,0,1-.263-.263V75.311a.263.263,0,0,1,.263-.262h3.446a.262.262,0,0,1,.262.262V76.62a.262.262,0,0,1-.262.263" transform="translate(115.35 45.515)" fill="#577b9e"/>
        <g id="Group_46160" data-name="Group 46160" transform="translate(241.57 110.916)" opacity="0.15">
          <g id="Group_46159" data-name="Group 46159">
            <g id="Group_46158" data-name="Group 46158" clip-path="url(#clip-path)">
              <path id="Path_7244" data-name="Path 7244" d="M150.373,69.043v67.5h1.57v2.935h-1.57V268.114h1.57v2.935h43.428V69.043Z" transform="translate(-150.373 -69.043)"/>
            </g>
          </g>
        </g>
        <rect id="Rectangle_6938" data-name="Rectangle 6938" width="82.091" height="106.181" transform="translate(318.832 217.892)" fill="#6b6b6b"/>
        <g id="Group_46163" data-name="Group 46163" transform="translate(318.832 217.892)" opacity="0.15">
          <g id="Group_46162" data-name="Group 46162">
            <g id="Group_46161" data-name="Group 46161" clip-path="url(#clip-path-2)">
              <rect id="Rectangle_6939" data-name="Rectangle 6939" width="41.045" height="106.181" transform="translate(0 0)"/>
            </g>
          </g>
        </g>
        <rect id="Rectangle_6941" data-name="Rectangle 6941" width="89.074" height="113.033" transform="translate(315.339 207.387)" fill="#fff"/>
        <rect id="Rectangle_6942" data-name="Rectangle 6942" width="89.074" height="20.415" transform="translate(315.339 207.387)" fill="#d4d4d4"/>
        <path id="Path_7245" data-name="Path 7245" d="M246.974,136.9a3.653,3.653,0,1,1-3.653-3.653,3.653,3.653,0,0,1,3.653,3.653" transform="translate(145.352 80.807)" fill="#999"/>
        <path id="Path_7246" data-name="Path 7246" d="M248.939,136.206a1.827,1.827,0,1,1-1.827-1.827,1.826,1.826,0,0,1,1.827,1.827" transform="translate(148.759 81.497)" fill="#999"/>
        <path id="Path_7247" data-name="Path 7247" d="M240.506,138.973a3.653,3.653,0,1,1-.925-5.083,3.652,3.652,0,0,1,.925,5.083" transform="translate(141.822 80.807)" fill="#666"/>
        <path id="Path_7248" data-name="Path 7248" d="M237.867,134.03l-1.192,2.572-.707-.488Z" transform="translate(143.108 81.286)" fill="#3b3b3b"/>
        <rect id="Rectangle_6943" data-name="Rectangle 6943" width="15.902" height="7.306" transform="translate(324.742 214.048)" fill="#a3a3a3"/>
        <path id="Path_7249" data-name="Path 7249" d="M259.539,176.4a25.787,25.787,0,1,1-25.787-25.787A25.787,25.787,0,0,1,259.539,176.4" transform="translate(126.125 91.342)" fill="#a3a3a3"/>
        <path id="Path_7250" data-name="Path 7250" d="M253.451,174.732a21.368,21.368,0,1,1-21.368-21.368,21.368,21.368,0,0,1,21.368,21.368" transform="translate(127.793 93.011)" fill="#fff"/>
        <path id="Path_7251" data-name="Path 7251" d="M249.07,173.632a18.188,18.188,0,1,1-18.187-18.187,18.187,18.187,0,0,1,18.187,18.187" transform="translate(128.993 94.273)" fill="#34495e"/>
        <rect id="Rectangle_6944" data-name="Rectangle 6944" width="13.343" height="7.306" transform="translate(342.609 214.236)" fill="#34495e"/>
        <path id="Path_7252" data-name="Path 7252" d="M217.1,136.921a1.289,1.289,0,1,1-1.29-1.29,1.29,1.29,0,0,1,1.29,1.29" transform="translate(130.102 82.256)" fill="#577b9e"/>
        <path id="Path_7253" data-name="Path 7253" d="M223.158,139.179H217.63a.307.307,0,0,1-.307-.307v-4.538a.306.306,0,0,1,.307-.305h5.528a.306.306,0,0,1,.307.305v4.538a.307.307,0,0,1-.307.307" transform="translate(131.8 81.285)" fill="#577b9e"/>
        <path id="Path_7254" data-name="Path 7254" d="M217.5,135.641H214.47a.231.231,0,0,1-.231-.231v-1.15a.232.232,0,0,1,.231-.231H217.5a.232.232,0,0,1,.231.231v1.15a.231.231,0,0,1-.231.231" transform="translate(129.93 81.284)" fill="#577b9e"/>
        <g id="Group_46166" data-name="Group 46166" transform="translate(315.341 207.387)" opacity="0.15">
          <g id="Group_46165" data-name="Group 46165">
            <g id="Group_46164" data-name="Group 46164" clip-path="url(#clip-path-3)">
              <rect id="Rectangle_6945" data-name="Rectangle 6945" width="44.536" height="113.033" transform="translate(0 0)"/>
            </g>
          </g>
        </g>
        <path id="Path_7255" data-name="Path 7255" d="M294.094,193.588H255.533a1.715,1.715,0,0,1-1.716-1.716v-2.858H295.81v2.858a1.716,1.716,0,0,1-1.716,1.716" transform="translate(153.933 114.632)" fill="#525252"/>
        <path id="Path_7256" data-name="Path 7256" d="M301.085,205.082H261.444a18.7,18.7,0,0,1-18.7-18.7V186a18.7,18.7,0,0,1,18.7-18.7h39.641a18.7,18.7,0,0,1,18.7,18.7v.378a18.7,18.7,0,0,1-18.7,18.7" transform="translate(147.217 101.464)" fill="#fff"/>
        <path id="Path_7257" data-name="Path 7257" d="M265.88,199.2h-7.043a14.473,14.473,0,0,1-14.473-14.473v-.292a14.472,14.472,0,0,1,14.473-14.473h7.043Z" transform="translate(148.2 103.077)" fill="#696969"/>
        <path id="Path_7258" data-name="Path 7258" d="M264.273,195.926h-5.65a11.608,11.608,0,0,1-11.608-11.61v-.233a11.609,11.609,0,0,1,11.608-11.61h5.65Z" transform="translate(149.808 104.6)" fill="#4d4d4d"/>
        <path id="Path_7259" data-name="Path 7259" d="M275.844,199.2h7.041a14.474,14.474,0,0,0,14.474-14.473v-.292a14.473,14.473,0,0,0-14.474-14.473h-7.041Z" transform="translate(167.292 103.077)" fill="#696969"/>
        <path id="Path_7260" data-name="Path 7260" d="M275.9,195.926h5.648a11.608,11.608,0,0,0,11.608-11.61v-.233a11.609,11.609,0,0,0-11.608-11.61H275.9Z" transform="translate(167.326 104.6)" fill="#4d4d4d"/>
        <path id="Path_7261" data-name="Path 7261" d="M284.627,168.7c0,1.035-5.8,1.875-12.959,1.875s-12.961-.84-12.961-1.875,5.8-1.875,12.961-1.875,12.959.839,12.959,1.875" transform="translate(156.898 101.176)" fill="#919191"/>
        <rect id="Rectangle_6947" data-name="Rectangle 6947" width="25.92" height="12.585" transform="translate(415.605 273.038)" fill="#bababa"/>
        <rect id="Rectangle_6948" data-name="Rectangle 6948" width="25.92" height="3.303" transform="translate(415.605 287.149)" fill="#6e6e6e"/>
        <rect id="Rectangle_6949" data-name="Rectangle 6949" width="25.92" height="9.791" transform="translate(415.605 292.484)" fill="#b0b0b0"/>
        <rect id="Rectangle_6950" data-name="Rectangle 6950" width="18.744" height="6.148" transform="translate(419.193 295.428)" fill="#8c8c8c"/>
        <path id="Path_7262" data-name="Path 7262" d="M258.655,180.93a3.134,3.134,0,1,1-3.134-3.134,3.135,3.135,0,0,1,3.134,3.134" transform="translate(153.066 107.828)" fill="#363636"/>
        <path id="Path_7263" data-name="Path 7263" d="M283.639,180.93a3.134,3.134,0,1,1-3.134-3.134,3.135,3.135,0,0,1,3.134,3.134" transform="translate(168.218 107.828)" fill="#363636"/>
        <g id="Group_46169" data-name="Group 46169" transform="translate(389.96 268.005)" opacity="0.15">
          <g id="Group_46168" data-name="Group 46168">
            <g id="Group_46167" data-name="Group 46167" clip-path="url(#clip-path-4)">
              <path id="Path_7264" data-name="Path 7264" d="M281.35,166.828a59.5,59.5,0,0,0-10.416.763h-9.489a18.7,18.7,0,0,0-18.7,18.7v.379a18.683,18.683,0,0,0,17.79,18.653v0a1.716,1.716,0,0,0,1.716,1.716h19.1Z" transform="translate(-242.743 -166.828)"/>
            </g>
          </g>
        </g>
        <rect id="Rectangle_6952" data-name="Rectangle 6952" width="5.724" height="19.744" transform="translate(184.034 204.793)" fill="#757575"/>
        <rect id="Rectangle_6953" data-name="Rectangle 6953" width="10.155" height="34.489" transform="translate(181.663 224.537)" fill="#b0b0b0"/>
        <rect id="Rectangle_6954" data-name="Rectangle 6954" width="6.93" height="47.06" transform="translate(183.274 259.026)" fill="#fff"/>
        <rect id="Rectangle_6955" data-name="Rectangle 6955" width="29.493" height="2.702" transform="translate(172.074 306.084)" fill="#b0b0b0"/>
        <rect id="Rectangle_6956" data-name="Rectangle 6956" width="2.779" height="3.022" transform="translate(172.074 308.786)" fill="#2e2e2e"/>
        <rect id="Rectangle_6957" data-name="Rectangle 6957" width="2.779" height="3.022" transform="translate(198.788 308.786)" fill="#2e2e2e"/>
        <rect id="Rectangle_6958" data-name="Rectangle 6958" width="7.626" height="13.926" transform="translate(182.913 228.921)" fill="#34495e"/>
        <path id="Path_7265" data-name="Path 7265" d="M115.9,146.5a1.345,1.345,0,1,1,1.346-1.345A1.344,1.344,0,0,1,115.9,146.5" transform="translate(69.476 87.217)" fill="#577b9e"/>
        <path id="Path_7266" data-name="Path 7266" d="M114.56,152.822v-5.77a.321.321,0,0,1,.32-.32h4.737a.32.32,0,0,1,.32.32v5.77a.321.321,0,0,1-.32.32H114.88a.321.321,0,0,1-.32-.32" transform="translate(69.477 88.989)" fill="#577b9e"/>
        <path id="Path_7267" data-name="Path 7267" d="M116.859,146.914v-3.162a.24.24,0,0,1,.241-.238h1.2a.24.24,0,0,1,.241.238v3.162a.241.241,0,0,1-.241.241h-1.2a.241.241,0,0,1-.241-.241" transform="translate(70.872 87.038)" fill="#577b9e"/>
        <rect id="Rectangle_6959" data-name="Rectangle 6959" width="0.429" height="17.282" transform="translate(186.759 172.32)" fill="#fff"/>
        <rect id="Rectangle_6960" data-name="Rectangle 6960" width="19.867" height="0.429" transform="translate(191.027 195.04)" fill="#fff"/>
        <rect id="Rectangle_6961" data-name="Rectangle 6961" width="20.58" height="0.431" transform="translate(169.581 212.615) rotate(-45)" fill="#fff"/>
        <path id="Path_7268" data-name="Path 7268" d="M128.686,133.585a11.1,11.1,0,1,1,0-15.7,11.106,11.106,0,0,1,0,15.7" transform="translate(66.55 69.521)" fill="#b0b0b0"/>
        <path id="Path_7269" data-name="Path 7269" d="M128.679,112.4c-3.158-.651-3.876,8.831-10.575,9.69l3.147,5.272c3.2-1.417,11.361.469,13.549-4.707,1.295-4.307-2.964-9.607-6.121-10.256" transform="translate(71.627 68.146)" fill="#6188cc"/>
        <path id="Path_7270" data-name="Path 7270" d="M125.349,138.6c2.194-2.36-5.526-7.905-2.773-14.073l-6.142-.058c-.455,3.472-6.312,9.46-3.031,14.021,3.006,3.346,9.75,2.469,11.946.109" transform="translate(68.173 75.486)" fill="#6188cc"/>
        <path id="Path_7271" data-name="Path 7271" d="M110.355,112.609c3.12-.814,4.336,8.614,11.07,9.122l-2.864,5.431c-3.271-1.247-11.322,1.065-13.779-3.989-1.52-4.233,2.455-9.75,5.573-10.564" transform="translate(63.345 68.264)" fill="#6188cc"/>
        <path id="Path_7272" data-name="Path 7272" d="M121.958,128.921a5.968,5.968,0,1,1,2.066-8.183,5.972,5.972,0,0,1-2.066,8.183" transform="translate(68.488 71.459)" fill="#fff"/>
        <path id="Path_7273" data-name="Path 7273" d="M118.756,124.476a2.373,2.373,0,1,1,.821-3.255,2.369,2.369,0,0,1-.821,3.255" transform="translate(69.846 72.816)" fill="#b0b0b0"/>
        <path id="Path_7274" data-name="Path 7274" d="M108.321,148.136a24.208,24.208,0,1,1,34.236,0,24.239,24.239,0,0,1-34.236,0m33.551-33.551a23.241,23.241,0,1,0,0,32.867,23.266,23.266,0,0,0,0-32.867" transform="translate(61.401 64.784)" fill="#fff"/>
        <g id="Group_46172" data-name="Group 46172" transform="translate(162.642 171.605)" opacity="0.15">
          <g id="Group_46171" data-name="Group 46171">
            <g id="Group_46170" data-name="Group 46170" clip-path="url(#clip-path-5)">
              <path id="Path_7275" data-name="Path 7275" d="M125.985,106.821A25.4,25.4,0,0,0,108.32,113.9a24.174,24.174,0,0,0,14.314,41.135v4.718h-2.371v34.489h1.611V241.3h-11.2v5.722h2.779V244h11.986l.349-136.211.194,0ZM109,114.582a23.175,23.175,0,0,1,16.354-6.791V119.4a11.054,11.054,0,0,0-7.093,3.1c-2.628-2.89-3.872-6.961-5.968-6.413-3.118.814-7.093,6.331-5.573,10.564,1.467,3.019,4.927,3.407,8.172,3.5a11.055,11.055,0,0,0,3.027,7.938l-9.131,9.13A23.258,23.258,0,0,1,109,114.582m.085,32.947,9.131-9.13a11.018,11.018,0,0,0,2.742,1.968c-1.455,2.893-2.739,6.109-.787,8.824a6.184,6.184,0,0,0,2.458,1.618v3.25a23.106,23.106,0,0,1-13.544-6.53" transform="translate(-101.242 -106.821)"/>
            </g>
          </g>
        </g>
        <rect id="Rectangle_6963" data-name="Rectangle 6963" width="62.072" height="2.161" transform="translate(195.368 312.321)" fill="#545454"/>
        <rect id="Rectangle_6964" data-name="Rectangle 6964" width="63.57" height="57.757" transform="translate(194.568 255.508)" fill="#fff"/>
        <path id="Path_7276" data-name="Path 7276" d="M123.34,174.441h-.019a.951.951,0,0,1-.951-.951V161.469a.951.951,0,0,1,.951-.951h.019a.951.951,0,0,1,.951.951V173.49a.951.951,0,0,1-.951.951" transform="translate(74.214 97.35)" fill="#787878"/>
        <path id="Path_7277" data-name="Path 7277" d="M125.731,174.441h-.019a.951.951,0,0,1-.951-.951V161.469a.951.951,0,0,1,.951-.951h.019a.951.951,0,0,1,.951.951V173.49a.951.951,0,0,1-.951.951" transform="translate(75.664 97.35)" fill="#787878"/>
        <path id="Path_7278" data-name="Path 7278" d="M130.513,174.441h-.019a.951.951,0,0,1-.951-.951V161.469a.951.951,0,0,1,.951-.951h.019a.951.951,0,0,1,.951.951V173.49a.951.951,0,0,1-.951.951" transform="translate(78.564 97.35)" fill="#787878"/>
        <path id="Path_7279" data-name="Path 7279" d="M128.122,174.441H128.1a.951.951,0,0,1-.951-.951V161.469a.951.951,0,0,1,.951-.951h.019a.951.951,0,0,1,.951.951V173.49a.951.951,0,0,1-.951.951" transform="translate(77.114 97.35)" fill="#787878"/>
        <path id="Path_7280" data-name="Path 7280" d="M132.9,174.441h-.019a.951.951,0,0,1-.951-.951V161.469a.951.951,0,0,1,.951-.951h.019a.951.951,0,0,1,.951.951V173.49a.951.951,0,0,1-.951.951" transform="translate(80.014 97.35)" fill="#787878"/>
        <path id="Path_7281" data-name="Path 7281" d="M135.3,174.441h-.019a.951.951,0,0,1-.951-.951V161.469a.951.951,0,0,1,.951-.951h.019a.951.951,0,0,1,.951.951V173.49a.951.951,0,0,1-.951.951" transform="translate(81.464 97.35)" fill="#787878"/>
        <path id="Path_7282" data-name="Path 7282" d="M137.686,174.441h-.019a.951.951,0,0,1-.951-.951V161.469a.951.951,0,0,1,.951-.951h.019a.951.951,0,0,1,.951.951V173.49a.951.951,0,0,1-.951.951" transform="translate(82.914 97.35)" fill="#787878"/>
        <path id="Path_7283" data-name="Path 7283" d="M140.077,174.441h-.019a.951.951,0,0,1-.951-.951V161.469a.951.951,0,0,1,.951-.951h.019a.951.951,0,0,1,.951.951V173.49a.951.951,0,0,1-.951.951" transform="translate(84.364 97.35)" fill="#787878"/>
        <path id="Path_7284" data-name="Path 7284" d="M142.468,174.441h-.019a.951.951,0,0,1-.951-.951V161.469a.951.951,0,0,1,.951-.951h.019a.951.951,0,0,1,.951.951V173.49a.951.951,0,0,1-.951.951" transform="translate(85.814 97.35)" fill="#787878"/>
        <path id="Path_7285" data-name="Path 7285" d="M144.858,174.441h-.019a.952.952,0,0,1-.951-.951V161.469a.952.952,0,0,1,.951-.951h.019a.951.951,0,0,1,.951.951V173.49a.951.951,0,0,1-.951.951" transform="translate(87.264 97.35)" fill="#787878"/>
        <path id="Path_7286" data-name="Path 7286" d="M147.249,174.441h-.019a.951.951,0,0,1-.951-.951V161.469a.951.951,0,0,1,.951-.951h.019a.951.951,0,0,1,.951.951V173.49a.951.951,0,0,1-.951.951" transform="translate(88.714 97.35)" fill="#787878"/>
        <path id="Path_7287" data-name="Path 7287" d="M149.64,174.441h-.019a.951.951,0,0,1-.951-.951V161.469a.951.951,0,0,1,.951-.951h.019a.951.951,0,0,1,.951.951V173.49a.951.951,0,0,1-.951.951" transform="translate(90.164 97.35)" fill="#787878"/>
        <path id="Path_7288" data-name="Path 7288" d="M152.031,174.441h-.019a.952.952,0,0,1-.951-.951V161.469a.952.952,0,0,1,.951-.951h.019a.951.951,0,0,1,.951.951V173.49a.951.951,0,0,1-.951.951" transform="translate(91.614 97.35)" fill="#787878"/>
        <path id="Path_7289" data-name="Path 7289" d="M154.422,174.441H154.4a.951.951,0,0,1-.951-.951V161.469a.951.951,0,0,1,.951-.951h.019a.951.951,0,0,1,.951.951V173.49a.951.951,0,0,1-.951.951" transform="translate(93.064 97.35)" fill="#787878"/>
        <path id="Path_7290" data-name="Path 7290" d="M156.813,174.441h-.019a.951.951,0,0,1-.951-.951V161.469a.951.951,0,0,1,.951-.951h.019a.951.951,0,0,1,.951.951V173.49a.951.951,0,0,1-.951.951" transform="translate(94.514 97.35)" fill="#787878"/>
        <path id="Path_7291" data-name="Path 7291" d="M159.2,174.441h-.019a.951.951,0,0,1-.951-.951V161.469a.951.951,0,0,1,.951-.951h.019a.951.951,0,0,1,.951.951V173.49a.951.951,0,0,1-.951.951" transform="translate(95.964 97.35)" fill="#787878"/>
        <rect id="Rectangle_6965" data-name="Rectangle 6965" width="57.614" height="9.483" transform="translate(197.545 276.212)" fill="#d4d4d4"/>
        <path id="Path_7292" data-name="Path 7292" d="M125.209,199.342a2.611,2.611,0,1,1-2.611-2.611,2.611,2.611,0,0,1,2.611,2.611" transform="translate(72.769 119.312)" fill="#404040"/>
        <path id="Path_7293" data-name="Path 7293" d="M124,197.052h0v-1.293h-.773v1.094a3.028,3.028,0,0,0-.439-.043,3.119,3.119,0,0,0-3.12,3.12h6.241A3.121,3.121,0,0,0,124,197.052" transform="translate(72.576 118.722)" fill="#2e2e2e"/>
        <path id="Path_7294" data-name="Path 7294" d="M162.741,199.342a2.611,2.611,0,1,1-2.611-2.611,2.611,2.611,0,0,1,2.611,2.611" transform="translate(95.531 119.312)" fill="#404040"/>
        <path id="Path_7295" data-name="Path 7295" d="M161.533,197.052h0v-1.293h-.773v1.094a3.051,3.051,0,0,0-.439-.043,3.12,3.12,0,0,0-3.121,3.12h6.243a3.121,3.121,0,0,0-1.912-2.877" transform="translate(95.339 118.722)" fill="#2e2e2e"/>
        <rect id="Rectangle_6966" data-name="Rectangle 6966" width="9.938" height="5.441" transform="translate(242.935 278.233)" fill="#34495e"/>
        <path id="Path_7296" data-name="Path 7296" d="M154.078,175.849a.96.96,0,1,1-.961-.961.961.961,0,0,1,.961.961" transform="translate(92.28 106.065)" fill="#577b9e"/>
        <path id="Path_7297" data-name="Path 7297" d="M158.588,177.531h-4.117a.229.229,0,0,1-.228-.228v-3.38a.229.229,0,0,1,.228-.228h4.117a.228.228,0,0,1,.228.228v3.38a.228.228,0,0,1-.228.228" transform="translate(93.544 105.341)" fill="#577b9e"/>
        <path id="Path_7298" data-name="Path 7298" d="M154.373,174.9h-2.256a.172.172,0,0,1-.172-.172v-.856a.172.172,0,0,1,.172-.172h2.256a.172.172,0,0,1,.172.172v.856a.172.172,0,0,1-.172.172" transform="translate(92.151 105.341)" fill="#577b9e"/>
        <g id="Group_46175" data-name="Group 46175" transform="translate(192.246 255.508)" opacity="0.15">
          <g id="Group_46174" data-name="Group 46174">
            <g id="Group_46173" data-name="Group 46173" clip-path="url(#clip-path-6)">
              <path id="Path_7299" data-name="Path 7299" d="M153.775,159.049H121.991v57.757h.8v1.216h.439v1.094a3.274,3.274,0,0,0-.439-.043,3.12,3.12,0,0,0-3.12,3.121h.509a2.611,2.611,0,1,0,5.221,0h.511A3.125,3.125,0,0,0,124,219.316v-1.293h29.776Z" transform="translate(-119.67 -159.049)"/>
            </g>
          </g>
        </g>
        <rect id="Rectangle_6968" data-name="Rectangle 6968" width="60.689" height="36.317" transform="translate(248.328 74.598)" fill="#6b6b6b"/>
        <rect id="Rectangle_6969" data-name="Rectangle 6969" width="63.448" height="37.967" transform="translate(246.95 71.298)" fill="#e6e6e6"/>
        <rect id="Rectangle_6970" data-name="Rectangle 6970" width="43.519" height="26.043" transform="translate(252.041 76.572)" fill="#262e36"/>
        <rect id="Rectangle_6971" data-name="Rectangle 6971" width="10.421" height="10.524" transform="translate(297.759 83.368)" fill="#969696"/>
        <rect id="Rectangle_6972" data-name="Rectangle 6972" width="10.421" height="2.614" transform="translate(297.759 96.265)" fill="#666"/>
        <rect id="Rectangle_6973" data-name="Rectangle 6973" width="10.421" height="2.614" transform="translate(297.759 100.001)" fill="#666"/>
        <rect id="Rectangle_6974" data-name="Rectangle 6974" width="10.424" height="5.709" transform="translate(297.666 76.421)" fill="#34495e"/>
        <path id="Path_7300" data-name="Path 7300" d="M188.287,50.355a1.007,1.007,0,1,1-1.007-1.007,1.008,1.008,0,0,1,1.007,1.007" transform="translate(112.969 29.928)" fill="#577b9e"/>
        <path id="Path_7301" data-name="Path 7301" d="M193.019,52.12H188.7a.24.24,0,0,1-.239-.239V48.335a.24.24,0,0,1,.239-.239h4.32a.24.24,0,0,1,.239.239v3.545a.24.24,0,0,1-.239.239" transform="translate(114.296 29.169)" fill="#577b9e"/>
        <path id="Path_7302" data-name="Path 7302" d="M188.6,49.355h-2.366a.18.18,0,0,1-.18-.18v-.9a.18.18,0,0,1,.18-.18H188.6a.18.18,0,0,1,.18.18v.9a.18.18,0,0,1-.18.18" transform="translate(112.835 29.169)" fill="#577b9e"/>
        <g id="Group_46178" data-name="Group 46178" transform="translate(246.95 71.297)" opacity="0.15">
          <g id="Group_46177" data-name="Group 46177">
            <g id="Group_46176" data-name="Group 46176" clip-path="url(#clip-path-7)">
              <path id="Path_7303" data-name="Path 7303" d="M185.136,44.381H153.722V82.349h1.38V84h30.035Z" transform="translate(-153.722 -44.381)"/>
            </g>
          </g>
        </g>
        <path id="Path_7304" data-name="Path 7304" d="M180.321,112.9H130.349a1.543,1.543,0,0,1-1.544-1.544V78a1.543,1.543,0,0,1,1.544-1.544h49.972A1.543,1.543,0,0,1,181.865,78v33.35a1.543,1.543,0,0,1-1.544,1.544" transform="translate(78.117 46.371)" fill="#fff"/>
        <path id="Path_7305" data-name="Path 7305" d="M174.57,109.583H131.2a1.34,1.34,0,0,1-1.34-1.34V79.3a1.34,1.34,0,0,1,1.34-1.34H174.57a1.339,1.339,0,0,1,1.34,1.34v28.945a1.339,1.339,0,0,1-1.34,1.34" transform="translate(78.756 47.279)" fill="#3d3d3d"/>
        <path id="Path_7306" data-name="Path 7306" d="M174.054,109.16h-42.53a1.314,1.314,0,0,1-1.314-1.314V79.463a1.314,1.314,0,0,1,1.314-1.314h42.53a1.314,1.314,0,0,1,1.314,1.314v28.383a1.314,1.314,0,0,1-1.314,1.314" transform="translate(78.969 47.395)" fill="#34495e"/>
        <path id="Path_7307" data-name="Path 7307" d="M161.823,87.412v3.73a1.31,1.31,0,0,1-1.309,1.311h-.027a1.31,1.31,0,0,1-1.309-1.311v-3.73a1.31,1.31,0,0,1,1.309-1.309h.027a1.31,1.31,0,0,1,1.309,1.309" transform="translate(96.536 52.219)" fill="#8c8c8c"/>
        <path id="Path_7308" data-name="Path 7308" d="M141.2,82.868h-2.6v2.7a5.82,5.82,0,0,0-1.785.741L134.9,84.4l-1.841,1.841,1.915,1.913a5.757,5.757,0,0,0-.741,1.785h-2.705v2.6h2.705a5.74,5.74,0,0,0,.741,1.785l-1.915,1.913,1.841,1.841,1.915-1.913a5.78,5.78,0,0,0,1.785.741v2.705h2.6V96.909a5.787,5.787,0,0,0,1.783-.741l1.915,1.913,1.841-1.841-1.915-1.913a5.783,5.783,0,0,0,.742-1.785h2.7v-2.6h-2.7a5.8,5.8,0,0,0-.742-1.785l1.915-1.913L144.9,84.4l-1.915,1.913a5.827,5.827,0,0,0-1.783-.741Zm1.494,7.716a2.876,2.876,0,0,1-3.454,3.452,2.872,2.872,0,1,1,3.454-3.452" transform="translate(79.768 50.257)" fill="#577b9e"/>
        <path id="Path_7309" data-name="Path 7309" d="M150.315,89.278V95.3a.847.847,0,0,1-.847.847h-4.328a.847.847,0,0,1-.847-.847V89.278a.847.847,0,0,1,.847-.847h4.328a.847.847,0,0,1,.847.847" transform="translate(87.51 53.631)" fill="#577b9e"/>
        <path id="Path_7310" data-name="Path 7310" d="M150.315,83.773v6.021a.847.847,0,0,1-.847.847h-4.328a.847.847,0,0,1-.847-.847V83.773a.847.847,0,0,1,.847-.847h4.328a.847.847,0,0,1,.847.847" transform="translate(87.51 50.292)" fill="#577b9e"/>
        <path id="Path_7311" data-name="Path 7311" d="M154.532,89.278V95.3a.847.847,0,0,1-.847.847h-4.328a.847.847,0,0,1-.847-.847V89.278a.847.847,0,0,1,.847-.847h4.328a.847.847,0,0,1,.847.847" transform="translate(90.068 53.631)" fill="#577b9e"/>
        <path id="Path_7312" data-name="Path 7312" d="M154.532,83.773v6.021a.847.847,0,0,1-.847.847h-4.328a.847.847,0,0,1-.847-.847V83.773a.847.847,0,0,1,.847-.847h4.328a.847.847,0,0,1,.847.847" transform="translate(90.068 50.292)" fill="#577b9e"/>
        <path id="Path_7313" data-name="Path 7313" d="M158.749,89.278V95.3a.847.847,0,0,1-.847.847h-4.328a.847.847,0,0,1-.847-.847V89.278a.847.847,0,0,1,.847-.847H157.9a.847.847,0,0,1,.847.847" transform="translate(92.625 53.631)" fill="#577b9e"/>
        <path id="Path_7314" data-name="Path 7314" d="M158.749,83.773v6.021a.847.847,0,0,1-.847.847h-4.328a.847.847,0,0,1-.847-.847V83.773a.847.847,0,0,1,.847-.847H157.9a.847.847,0,0,1,.847.847" transform="translate(92.625 50.292)" fill="#577b9e"/>
        <g id="Group_46181" data-name="Group 46181" transform="translate(206.922 122.831)" opacity="0.15">
          <g id="Group_46180" data-name="Group 46180">
            <g id="Group_46179" data-name="Group 46179" clip-path="url(#clip-path-8)">
              <path id="Path_7315" data-name="Path 7315" d="M155.227,112.9H130.349a1.543,1.543,0,0,1-1.544-1.544V78a1.543,1.543,0,0,1,1.544-1.544h24.878Z" transform="translate(-128.805 -76.46)"/>
            </g>
          </g>
        </g>
        <path id="Path_7316" data-name="Path 7316" d="M287.2,108.328a.409.409,0,1,1-.41-.408.409.409,0,0,1,.41.408" transform="translate(173.681 65.45)" fill="#262626"/>
        <path id="Path_7317" data-name="Path 7317" d="M289.418,110.672h-8.461l-1.314-1.472v-1.472h9.775a1.457,1.457,0,0,1,1.457,1.457v.029a1.457,1.457,0,0,1-1.457,1.457" transform="translate(169.595 65.335)" fill="#fff"/>
        <path id="Path_7318" data-name="Path 7318" d="M278.555,109.947h3l.018-.887-.956-.887h-2.061Z" transform="translate(168.936 65.604)" fill="#707070"/>
        <path id="Path_7319" data-name="Path 7319" d="M286.789,104.027h-.167l-.1,6.442h.39Z" transform="translate(173.765 63.089)" fill="#262626"/>
        <path id="Path_7320" data-name="Path 7320" d="M292.216,101.431a.57.57,0,0,1-.969.408,4.505,4.505,0,0,0-3.046-1.312,4.239,4.239,0,0,0-3.1,1.33.571.571,0,0,1-.827-.787,5.375,5.375,0,0,1,3.926-1.684,5.585,5.585,0,0,1,3.843,1.637.57.57,0,0,1,.172.408" transform="translate(172.31 60.275)" fill="#274f45"/>
        <path id="Path_7321" data-name="Path 7321" d="M296.469,99.18a.571.571,0,0,1-.965.413,8.973,8.973,0,0,0-12.3-.01.57.57,0,0,1-.806-.806,10.11,10.11,0,0,1,13.894-.01.572.572,0,0,1,.177.413" transform="translate(171.165 58.226)" fill="#274f45"/>
        <path id="Path_7322" data-name="Path 7322" d="M294.323,100.379a.57.57,0,0,1-.967.41,7.008,7.008,0,0,0-4.636-2.021,6.486,6.486,0,0,0-4.57,1.976.57.57,0,0,1-.821-.792,7.541,7.541,0,0,1,5.391-2.325,8.186,8.186,0,0,1,5.43,2.342.565.565,0,0,1,.173.41" transform="translate(171.733 59.208)" fill="#274f45"/>
        <path id="Path_7323" data-name="Path 7323" d="M288.985,103a1.713,1.713,0,1,1-1.714-1.714A1.714,1.714,0,0,1,288.985,103" transform="translate(173.183 61.425)" fill="#274f45"/>
        <path id="Path_7324" data-name="Path 7324" d="M320.872,118.788H227.6a.351.351,0,0,1-.352-.35v-1.492a.352.352,0,0,1,.352-.352h93.269a.352.352,0,0,1,.352.352v1.492a.351.351,0,0,1-.352.35" transform="translate(137.822 70.711)" fill="#2e2e2e"/>
        <path id="Path_7325" data-name="Path 7325" d="M309.091,122.74V82.35a.615.615,0,0,0-.615-.615H240.813a.615.615,0,0,0-.615.615v40.39l-13.4,14.307a.406.406,0,0,0-.109.278v1.1a.407.407,0,0,0,.406.408h95.212a.407.407,0,0,0,.406-.408v-1.1a.409.409,0,0,0-.111-.281Z" transform="translate(137.48 49.57)" fill="#fff"/>
        <path id="Path_7326" data-name="Path 7326" d="M284.193,110.29H234.017l1.052-1.165h48.692Z" transform="translate(141.924 66.181)" fill="#9e9e9e"/>
        <path id="Path_7327" data-name="Path 7327" d="M290.178,118.2H229.169l7.03-7.775h51.267Z" transform="translate(138.984 66.968)" fill="#9e9e9e"/>
        <path id="Path_7328" data-name="Path 7328" d="M278.451,113.971H267.993l-1.766-4.484h9.39Z" transform="translate(161.459 66.401)" fill="#9e9e9e"/>
        <path id="Path_7329" data-name="Path 7329" d="M290.988,118.766H279.31l-6.238-9.279h9.451Z" transform="translate(165.611 66.401)" fill="#9e9e9e"/>
        <path id="Path_7330" data-name="Path 7330" d="M275.352,114.669l-1.084-1.965h-3.51l.928,1.965h-3.711l.843,2.146h11.6l-1.356-2.146Z" transform="translate(162.519 68.352)" fill="#9e9e9e"/>
        <rect id="Rectangle_6977" data-name="Rectangle 6977" width="62.991" height="35.495" transform="translate(380.594 133.021)" fill="#e57368"/>
        <rect id="Rectangle_6978" data-name="Rectangle 6978" width="15.08" height="0.829" transform="translate(429.264 170.063)" fill="#8c8c8c"/>
        <rect id="Rectangle_6979" data-name="Rectangle 6979" width="68.894" height="0.161" transform="translate(377.678 172.23)" fill="#919191"/>
        <g id="Group_46184" data-name="Group 46184" transform="translate(364.168 131.305)" opacity="0.15">
          <g id="Group_46183" data-name="Group 46183">
            <g id="Group_46182" data-name="Group 46182" clip-path="url(#clip-path-9)">
              <path id="Path_7331" data-name="Path 7331" d="M274.7,81.735H240.813a.615.615,0,0,0-.615.615v40.39l-13.4,14.306a.407.407,0,0,0-.109.28v1.1a.407.407,0,0,0,.406.408h.5v.745a.352.352,0,0,0,.352.352H274.7Z" transform="translate(-226.687 -81.735)"/>
            </g>
          </g>
        </g>
        <path id="Path_7332" data-name="Path 7332" d="M254.66,98.619H246.4a.334.334,0,0,1-.334-.334V84.622a.334.334,0,0,1,.334-.334h8.265a.334.334,0,0,1,.334.334V98.285a.334.334,0,0,1-.334.334" transform="translate(149.229 51.118)" fill="#fff"/>
        <rect id="Rectangle_6981" data-name="Rectangle 6981" width="7.43" height="7.986" transform="translate(396.098 136.047)" fill="#579e8c"/>
        <path id="Path_7333" data-name="Path 7333" d="M248.289,86.331v2.824a.94.94,0,0,0-.283-.042c-.4,0-.72.241-.72.541s.323.543.72.543.721-.244.721-.543V87.213l2.612-.4v1.859a.937.937,0,0,0-.281-.043c-.4,0-.72.243-.72.543s.321.541.72.541.72-.243.72-.541l0-.016h0V85.806Z" transform="translate(149.973 52.039)" fill="#274f45"/>
        <path id="Path_7334" data-name="Path 7334" d="M250.581,91.7a1.3,1.3,0,1,1-1.263-.982,1.15,1.15,0,0,1,1.263.982" transform="translate(150.439 55.021)" fill="#919191"/>
        <path id="Path_7335" data-name="Path 7335" d="M251.783,91.7c0,.541-.874.982-1.573.982V90.723c.7,0,1.573.44,1.573.982" transform="translate(151.745 55.021)" fill="#919191"/>
        <path id="Path_7336" data-name="Path 7336" d="M246.564,91.7c0,.541.874.982,1.571.982V90.723c-.7,0-1.571.44-1.571.982" transform="translate(149.534 55.021)" fill="#919191"/>
        <path id="Path_7337" data-name="Path 7337" d="M245.4,106.123v-8.85a.853.853,0,0,1,.853-.853h13.17a.853.853,0,0,1,.853.853v8.85a.854.854,0,0,1-.853.853h-13.17a.854.854,0,0,1-.853-.853" transform="translate(148.825 58.476)" fill="#fff"/>
        <rect id="Rectangle_6982" data-name="Rectangle 6982" width="4.392" height="1.46" transform="translate(395.42 156.006)" fill="#274f45"/>
        <rect id="Rectangle_6983" data-name="Rectangle 6983" width="2.196" height="0.729" transform="translate(395.82 156.371)" fill="#579e8c"/>
        <path id="Path_7338" data-name="Path 7338" d="M254.673,101.859a3.374,3.374,0,1,1-3.377-3.385,3.379,3.379,0,0,1,3.377,3.385" transform="translate(150.36 59.722)" fill="#519181"/>
        <path id="Path_7339" data-name="Path 7339" d="M253.6,101.567A2.591,2.591,0,1,1,251,98.979a2.587,2.587,0,0,1,2.594,2.588" transform="translate(150.655 60.028)" fill="#274f45"/>
        <rect id="Rectangle_6984" data-name="Rectangle 6984" width="1.696" height="0.639" transform="translate(405.041 154.255)" fill="#1a362f"/>
        <path id="Path_7340" data-name="Path 7340" d="M251.741,96.021h-.008a.451.451,0,0,0-.451.45v.19h.911v-.19a.452.452,0,0,0-.451-.45" transform="translate(152.395 58.234)" fill="#1a362f"/>
        <path id="Path_7341" data-name="Path 7341" d="M271.173,108.2h-9.748a.864.864,0,0,1-.864-.864V95.775a.865.865,0,0,1,.864-.864h9.748a.865.865,0,0,1,.864.864v11.557a.864.864,0,0,1-.864.864" transform="translate(158.023 57.561)" fill="#274f45"/>
        <rect id="Rectangle_6985" data-name="Rectangle 6985" width="9.95" height="11.128" transform="translate(419.347 153.192)" fill="#fff"/>
        <rect id="Rectangle_6986" data-name="Rectangle 6986" width="6.064" height="0.713" transform="translate(419.349 162.864)" fill="#579e8c"/>
        <rect id="Rectangle_6987" data-name="Rectangle 6987" width="1.595" height="0.713" transform="translate(427.702 162.864)" fill="#579e8c"/>
        <rect id="Rectangle_6988" data-name="Rectangle 6988" width="1.645" height="0.713" transform="translate(425.728 162.864)" fill="#274f45"/>
        <rect id="Rectangle_6989" data-name="Rectangle 6989" width="8.577" height="3.672" transform="translate(420.023 153.664)" fill="#b0b0b0"/>
        <rect id="Rectangle_6990" data-name="Rectangle 6990" width="7.348" height="4.566" transform="translate(420.025 157.776)" fill="#b0b0b0"/>
        <path id="Path_7342" data-name="Path 7342" d="M266.49,84.032a2.547,2.547,0,0,0-2.3,1.446,2.55,2.55,0,1,0-2.3,3.655h4.593a2.55,2.55,0,0,0,0-5.1" transform="translate(157.286 50.963)" fill="#fff"/>
        <path id="Path_7343" data-name="Path 7343" d="M270.108,94.871H259.339a.808.808,0,0,1-.843-.769V88.072a.808.808,0,0,1,.843-.769h10.768a.808.808,0,0,1,.843.769V94.1a.808.808,0,0,1-.843.769" transform="translate(156.77 52.947)" fill="#fff"/>
        <rect id="Rectangle_6991" data-name="Rectangle 6991" width="4.72" height="0.154" transform="translate(419.183 140.096)" fill="#1a332d"/>
        <path id="Path_7344" data-name="Path 7344" d="M265.092,85.954a.886.886,0,1,1-.885-.887.886.886,0,0,1,.885.887" transform="translate(159.696 51.591)" fill="#579e8c"/>
        <path id="Path_7345" data-name="Path 7345" d="M264.58,85.813a.514.514,0,1,1-.514-.514.514.514,0,0,1,.514.514" transform="translate(159.837 51.731)" fill="#274f45"/>
        <path id="Path_7346" data-name="Path 7346" d="M262.154,85.954a.886.886,0,1,1-.885-.887.886.886,0,0,1,.885.887" transform="translate(157.914 51.591)" fill="#579e8c"/>
        <path id="Path_7347" data-name="Path 7347" d="M261.642,85.813a.514.514,0,1,1-.514-.514.514.514,0,0,1,.514.514" transform="translate(158.055 51.731)" fill="#274f45"/>
        <rect id="Rectangle_6992" data-name="Rectangle 6992" width="0.482" height="4.153" transform="translate(427.72 142.529)" fill="#274f45"/>
        <rect id="Rectangle_6993" data-name="Rectangle 6993" width="2.58" height="2.529" transform="translate(428.203 143.342)" fill="#fff"/>
        <rect id="Rectangle_6994" data-name="Rectangle 6994" width="0.567" height="2.529" transform="translate(429.493 143.342)" fill="#274f45"/>
        <path id="Path_7348" data-name="Path 7348" d="M269.083,92.076l-.929-.233V89.315l.929-.231Z" transform="translate(162.628 54.027)" fill="#274f45"/>
        <rect id="Rectangle_6995" data-name="Rectangle 6995" width="1.216" height="0.998" transform="translate(419.827 143.535)" fill="#579e8c"/>
        <rect id="Rectangle_6996" data-name="Rectangle 6996" width="1.216" height="0.998" transform="translate(417.328 143.535)" fill="#579e8c"/>
        <rect id="Rectangle_6997" data-name="Rectangle 6997" width="7.231" height="0.998" transform="translate(417.328 145.371)" fill="#579e8c"/>
        <path id="Path_7349" data-name="Path 7349" d="M238.75,129.81H208.1a1.058,1.058,0,0,1-1.059-1.057v-.879h32.766v.879a1.057,1.057,0,0,1-1.057,1.057" transform="translate(125.564 77.552)" fill="#6b6b6b"/>
        <path id="Path_7350" data-name="Path 7350" d="M240.76,131.807H206.733v-7.292a2.386,2.386,0,0,1,2.386-2.386h29.255a2.386,2.386,0,0,1,2.386,2.386Z" transform="translate(125.378 74.068)" fill="#fff"/>
        <path id="Path_7351" data-name="Path 7351" d="M226.284,128.946H208.977a1.307,1.307,0,0,1-1.306-1.3v-2.9a1.307,1.307,0,0,1,1.306-1.3h17.307a1.3,1.3,0,0,1,1.3,1.3v2.9a1.3,1.3,0,0,1-1.3,1.3" transform="translate(125.947 74.859)" fill="#393f45"/>
        <path id="Path_7352" data-name="Path 7352" d="M225.379,125.871a1.911,1.911,0,1,1-1.91-1.912,1.912,1.912,0,0,1,1.91,1.912" transform="translate(134.368 75.178)" fill="#999"/>
        <path id="Path_7353" data-name="Path 7353" d="M226.4,125.51a.956.956,0,1,1-.956-.956.955.955,0,0,1,.956.956" transform="translate(136.146 75.538)" fill="#999"/>
        <path id="Path_7354" data-name="Path 7354" d="M210.53,124.574a.216.216,0,0,1-.432,0v-.217a.218.218,0,0,1,.215-.215h1.92V125.4c0,.151,0,.169-.117.272l-.606.524c-.111.1-.12.108-.12.259v.839a.216.216,0,1,1-.432,0v-1.041a.235.235,0,0,1,.112-.251l.6-.514c.143-.125.135-.12.135-.312v-.6Z" transform="translate(127.418 75.289)" fill="#aed65d"/>
        <path id="Path_7355" data-name="Path 7355" d="M212.705,125.278c-.095,0-.164,0-.225-.082a.271.271,0,0,1-.048-.194v-.241a.271.271,0,0,1,.048-.194c.061-.084.13-.084.225-.084h.312c.095,0,.164,0,.223.084a.272.272,0,0,1,.048.194V125a.272.272,0,0,1-.048.194c-.059.082-.129.082-.223.082Zm0,1.47c-.095,0-.164,0-.225-.082a.271.271,0,0,1-.048-.194v-.243a.271.271,0,0,1,.048-.194c.061-.082.13-.082.225-.082h.312c.095,0,.164,0,.223.082a.272.272,0,0,1,.048.194v.243a.272.272,0,0,1-.048.194c-.059.082-.129.082-.223.082Z" transform="translate(128.834 75.495)" fill="#aed65d"/>
        <path id="Path_7356" data-name="Path 7356" d="M215.674,124.142a.434.434,0,0,1,.432.432v2.5a.425.425,0,0,1-.432.432H214.4a.424.424,0,0,1-.432-.432v-2.5a.433.433,0,0,1,.432-.432Zm0,.432H214.4v2.5h1.271Z" transform="translate(129.767 75.289)" fill="#aed65d"/>
        <path id="Path_7357" data-name="Path 7357" d="M217.61,124.142a.433.433,0,0,1,.432.432v2.5a.425.425,0,0,1-.432.432h-1.271a.425.425,0,0,1-.432-.432v-2.5a.433.433,0,0,1,.432-.432Zm0,.432h-1.271v2.5h1.271Z" transform="translate(130.941 75.289)" fill="#aed65d"/>
        <g id="Group_46187" data-name="Group 46187" transform="translate(332.111 196.2)" opacity="0.15">
          <g id="Group_46186" data-name="Group 46186">
            <g id="Group_46185" data-name="Group 46185" clip-path="url(#clip-path-10)">
              <path id="Path_7358" data-name="Path 7358" d="M223.611,122.131H209.119a2.386,2.386,0,0,0-2.386,2.386v7.292h.495v.427a1.058,1.058,0,0,0,1.057,1.057h15.326Z" transform="translate(-206.733 -122.131)"/>
            </g>
          </g>
        </g>
        <path id="Path_7359" data-name="Path 7359" d="M365.96,165.494H327.2a15.826,15.826,0,0,0-15.827,15.825v23.829h70.413V181.319a15.826,15.826,0,0,0-15.827-15.825" transform="translate(188.839 100.367)" fill="#fff"/>
        <path id="Path_7360" data-name="Path 7360" d="M317.727,195.174h-2.659a1.425,1.425,0,0,1-1.427-1.425v-3.571h5.509v3.571a1.424,1.424,0,0,1-1.423,1.425" transform="translate(190.215 115.338)" fill="#363636"/>
        <path id="Path_7361" data-name="Path 7361" d="M353.572,195.174h-2.659a1.425,1.425,0,0,1-1.427-1.425v-3.571H355v3.571a1.425,1.425,0,0,1-1.427,1.425" transform="translate(211.954 115.338)" fill="#363636"/>
        <path id="Path_7362" data-name="Path 7362" d="M362.3,175.484v1.329c0,.394-.909.713-2.034.713h-5.1v-2.755h5.1c1.124,0,2.034.321,2.034.713" transform="translate(215.397 105.994)" fill="#363636"/>
        <g id="Group_46190" data-name="Group 46190" transform="translate(500.213 265.862)" opacity="0.15">
          <g id="Group_46189" data-name="Group 46189">
            <g id="Group_46188" data-name="Group 46188" clip-path="url(#clip-path-11)">
              <path id="Path_7363" data-name="Path 7363" d="M346.58,165.494H327.2a15.825,15.825,0,0,0-15.825,15.825v23.829h3.642v3.57a1.426,1.426,0,0,0,1.427,1.427H319.1a1.426,1.426,0,0,0,1.423-1.427v-3.57H346.58Z" transform="translate(-311.374 -165.494)"/>
            </g>
          </g>
        </g>
        <rect id="Rectangle_7000" data-name="Rectangle 7000" width="16.897" height="9.252" transform="translate(544.2 292.431)" fill="#34495e"/>
        <path id="Path_7364" data-name="Path 7364" d="M343.61,186.545a1.633,1.633,0,1,1-1.632-1.632,1.634,1.634,0,0,1,1.632,1.632" transform="translate(206.409 112.144)" fill="#577b9e"/>
        <path id="Path_7365" data-name="Path 7365" d="M351.279,189.4h-7a.388.388,0,0,1-.387-.387v-5.748a.389.389,0,0,1,.387-.387h7a.387.387,0,0,1,.387.387v5.748a.386.386,0,0,1-.387.387" transform="translate(208.56 110.913)" fill="#577b9e"/>
        <path id="Path_7366" data-name="Path 7366" d="M344.112,184.922h-3.835a.292.292,0,0,1-.292-.292v-1.455a.292.292,0,0,1,.292-.292h3.835a.292.292,0,0,1,.292.292v1.455a.292.292,0,0,1-.292.292" transform="translate(206.191 110.913)" fill="#577b9e"/>
        <path id="Path_7367" data-name="Path 7367" d="M355.15,159.426H325.294a2.723,2.723,0,0,0-2.723,2.726v7.022h35.307v-7.022a2.727,2.727,0,0,0-2.728-2.726" transform="translate(195.63 96.687)" fill="#795547"/>
        <path id="Path_7368" data-name="Path 7368" d="M354.52,160.656H325.282a2.173,2.173,0,0,0-2.175,2.174v5.6H356.7v-5.6a2.174,2.174,0,0,0-2.175-2.174" transform="translate(195.955 97.433)" fill="#f0daa7"/>
        <path id="Path_7369" data-name="Path 7369" d="M327.506,162.851c0,.5-.652.912-1.455.912s-1.454-.408-1.454-.912.652-.911,1.454-.911,1.455.408,1.455.911" transform="translate(196.859 98.212)" fill="#bfae85"/>
        <path id="Path_7370" data-name="Path 7370" d="M328.627,164.841c0,.331-.426.6-.954.6s-.953-.267-.953-.6.424-.6.953-.6.954.268.954.6" transform="translate(198.146 99.608)" fill="#bfae85"/>
        <path id="Path_7371" data-name="Path 7371" d="M332.044,162.525c0,.5-.649.906-1.444.906s-1.447-.406-1.447-.906.649-.908,1.447-.908,1.444.406,1.444.908" transform="translate(199.621 98.016)" fill="#bfae85"/>
        <path id="Path_7372" data-name="Path 7372" d="M333.171,164.2c0,.5-.647.906-1.444.906s-1.447-.406-1.447-.906.649-.908,1.447-.908,1.444.406,1.444.908" transform="translate(200.305 99.032)" fill="#bfae85"/>
        <path id="Path_7373" data-name="Path 7373" d="M343.708,163.722c0,.337-.439.612-.978.612s-.977-.275-.977-.612.439-.612.977-.612.978.275.978.612" transform="translate(207.263 98.922)" fill="#bfae85"/>
        <path id="Path_7374" data-name="Path 7374" d="M341.349,164.794c0,.545-.707.988-1.578.988s-1.578-.443-1.578-.988.707-.99,1.578-.99,1.578.442,1.578.99" transform="translate(205.105 99.342)" fill="#bfae85"/>
        <path id="Path_7375" data-name="Path 7375" d="M337.737,162.863c0,.378-.487.683-1.088.683s-1.091-.305-1.091-.683.492-.681,1.091-.681,1.088.305,1.088.681" transform="translate(203.507 98.359)" fill="#bfae85"/>
        <path id="Path_7376" data-name="Path 7376" d="M337.092,164.437c0,.522-.676.945-1.508.945s-1.507-.422-1.507-.945.673-.945,1.507-.945,1.508.424,1.508.945" transform="translate(202.608 99.153)" fill="#bfae85"/>
        <path id="Path_7377" data-name="Path 7377" d="M334.857,161.735c0,.26-.336.472-.752.472s-.753-.212-.753-.472.336-.474.753-.474.752.214.752.474" transform="translate(202.168 97.8)" fill="#bfae85"/>
        <path id="Path_7378" data-name="Path 7378" d="M340.946,162.027c0,.26-.336.474-.75.474s-.755-.214-.755-.474.336-.472.755-.472.75.212.75.472" transform="translate(205.861 97.978)" fill="#bfae85"/>
        <g id="Group_46193" data-name="Group 46193" transform="translate(518.201 256.113)" opacity="0.15">
          <g id="Group_46192" data-name="Group 46192">
            <g id="Group_46191" data-name="Group 46191" clip-path="url(#clip-path-12)">
              <path id="Path_7379" data-name="Path 7379" d="M339.79,159.426h-14.5a2.723,2.723,0,0,0-2.725,2.726v7.022h17.22Z" transform="translate(-322.572 -159.426)"/>
            </g>
          </g>
        </g>
        <path id="Path_7380" data-name="Path 7380" d="M319.284,124.559h-.816v-1.351H293.374v1.351h-1.581a10.866,10.866,0,0,0-10.865,10.865v7.032a10.857,10.857,0,0,0,9.236,10.731l-1.406,15.737h30.525V140.5l3.6-15.936Zm-35.381,17.9v-7.032a7.9,7.9,0,0,1,7.891-7.889h.665l-2.027,22.672a7.918,7.918,0,0,1-6.529-7.751" transform="translate(170.375 74.722)" fill="#fff"/>
        <rect id="Rectangle_7002" data-name="Rectangle 7002" width="32.25" height="10.01" transform="translate(458.08 243.646)" fill="#b0b0b0"/>
        <g id="Group_46196" data-name="Group 46196" transform="translate(458.081 243.646)" opacity="0.15">
          <g id="Group_46195" data-name="Group 46195">
            <g id="Group_46194" data-name="Group 46194" clip-path="url(#clip-path-13)">
              <rect id="Rectangle_7003" data-name="Rectangle 7003" width="32.25" height="10.01" transform="translate(0 -0.001)"/>
            </g>
          </g>
        </g>
        <g id="Group_46199" data-name="Group 46199" transform="translate(451.304 197.93)" opacity="0.15">
          <g id="Group_46198" data-name="Group 46198">
            <g id="Group_46197" data-name="Group 46197" clip-path="url(#clip-path-14)">
              <path id="Path_7381" data-name="Path 7381" d="M293.374,123.208v1.351h-1.581a10.866,10.866,0,0,0-10.865,10.865v7.032a10.857,10.857,0,0,0,9.236,10.731l-1.406,15.737h-1.054v10.01h16.124V123.208ZM283.9,142.455v-7.032a7.9,7.9,0,0,1,7.891-7.889h.665l-2.027,22.672a7.918,7.918,0,0,1-6.529-7.751" transform="translate(-280.929 -123.208)"/>
            </g>
          </g>
        </g>
        <path id="Path_7382" data-name="Path 7382" d="M290.883,160.44a.523.523,0,0,1-.071,0,1.112,1.112,0,0,1-1.043-1.184l1.965-30.949a1.08,1.08,0,0,1,1.181-1.041,1.112,1.112,0,0,1,1.043,1.184L291.995,159.4a1.115,1.115,0,0,1-1.112,1.044" transform="translate(175.736 77.175)" fill="#34495e"/>
        <rect id="Rectangle_7006" data-name="Rectangle 7006" width="11.414" height="6.251" transform="translate(476.073 245.525)" fill="#34495e"/>
        <path id="Path_7383" data-name="Path 7383" d="M299.625,155.883a1.1,1.1,0,1,1-1.1-1.1,1.1,1.1,0,0,1,1.1,1.1" transform="translate(180.377 93.87)" fill="#577b9e"/>
        <path id="Path_7384" data-name="Path 7384" d="M304.806,157.815h-4.728a.261.261,0,0,1-.262-.262V153.67a.261.261,0,0,1,.262-.26h4.728a.263.263,0,0,1,.265.26v3.883a.264.264,0,0,1-.265.262" transform="translate(181.83 93.039)" fill="#577b9e"/>
        <path id="Path_7385" data-name="Path 7385" d="M299.965,154.788h-2.593a.2.2,0,0,1-.194-.2v-.985a.2.2,0,0,1,.194-.2h2.593a.2.2,0,0,1,.2.2v.985a.2.2,0,0,1-.2.2" transform="translate(180.23 93.039)" fill="#577b9e"/>
        <rect id="Rectangle_7007" data-name="Rectangle 7007" width="133.53" height="57.867" transform="translate(335.512 38.08)" fill="#fff"/>
        <rect id="Rectangle_7008" data-name="Rectangle 7008" width="130.497" height="21.549" transform="translate(337.129 71.403)" fill="#c7c7c7"/>
        <rect id="Rectangle_7009" data-name="Rectangle 7009" width="130.497" height="1.398" transform="translate(337.129 74.495)" fill="#787878"/>
        <rect id="Rectangle_7010" data-name="Rectangle 7010" width="130.497" height="1.396" transform="translate(337.129 78.087)" fill="#787878"/>
        <rect id="Rectangle_7011" data-name="Rectangle 7011" width="130.497" height="1.398" transform="translate(337.129 81.679)" fill="#787878"/>
        <rect id="Rectangle_7012" data-name="Rectangle 7012" width="130.497" height="1.398" transform="translate(337.129 85.272)" fill="#787878"/>
        <rect id="Rectangle_7013" data-name="Rectangle 7013" width="130.497" height="1.398" transform="translate(337.129 88.862)" fill="#787878"/>
        <rect id="Rectangle_7014" data-name="Rectangle 7014" width="26.439" height="5.586" transform="translate(337.129 61.427)" fill="#d4d4d4"/>
        <rect id="Rectangle_7015" data-name="Rectangle 7015" width="23.795" height="9.428" transform="translate(437.995 59.231)" fill="#c7c7c7"/>
        <rect id="Rectangle_7016" data-name="Rectangle 7016" width="12.389" height="6.784" transform="translate(447.436 60.827)" fill="#34495e"/>
        <path id="Path_7386" data-name="Path 7386" d="M282.08,41.173a1.2,1.2,0,1,1-1.2-1.2,1.2,1.2,0,0,1,1.2,1.2" transform="translate(169.622 24.244)" fill="#577b9e"/>
        <path id="Path_7387" data-name="Path 7387" d="M287.7,43.269h-5.134a.285.285,0,0,1-.283-.284V38.771a.286.286,0,0,1,.283-.284H287.7a.285.285,0,0,1,.286.284v4.214a.284.284,0,0,1-.286.284" transform="translate(171.198 23.341)" fill="#577b9e"/>
        <path id="Path_7388" data-name="Path 7388" d="M282.449,39.985h-2.811a.216.216,0,0,1-.215-.214V38.7a.218.218,0,0,1,.215-.215h2.811a.216.216,0,0,1,.214.215v1.07a.214.214,0,0,1-.214.214" transform="translate(169.461 23.341)" fill="#577b9e"/>
        <g id="Group_46202" data-name="Group 46202" transform="translate(335.513 38.08)" opacity="0.15">
          <g id="Group_46201" data-name="Group 46201">
            <g id="Group_46200" data-name="Group 46200" clip-path="url(#clip-path-15)">
              <rect id="Rectangle_7017" data-name="Rectangle 7017" width="66.217" height="57.867" transform="translate(0 0)"/>
            </g>
          </g>
        </g>
        <path id="Path_7389" data-name="Path 7389" d="M214.417,100.057V74.614a2.265,2.265,0,0,1,2.265-2.265h14.582a2.266,2.266,0,0,1,2.267,2.265v25.443a2.266,2.266,0,0,1-2.267,2.265H216.682a2.265,2.265,0,0,1-2.265-2.265" transform="translate(130.038 43.878)" fill="#fff"/>
        <path id="Path_7390" data-name="Path 7390" d="M230.9,98.074h-15a.509.509,0,0,1-.549-.458V73.443a.509.509,0,0,1,.549-.456h15a.507.507,0,0,1,.548.456V97.616a.508.508,0,0,1-.548.458" transform="translate(130.607 44.265)" fill="#3d3d3d"/>
        <path id="Path_7391" data-name="Path 7391" d="M230.746,97.92H215.971a.5.5,0,0,1-.54-.45V73.5a.5.5,0,0,1,.54-.451h14.775a.5.5,0,0,1,.54.451V97.47a.5.5,0,0,1-.54.45" transform="translate(130.653 44.305)" fill="#c48937"/>
        <path id="Path_7392" data-name="Path 7392" d="M222.428,90.985h-2.511a.882.882,0,0,1-.882-.882v-.018a.881.881,0,0,1,.882-.88h2.511a.881.881,0,0,1,.882.88V90.1a.882.882,0,0,1-.882.882" transform="translate(132.838 54.1)" fill="#616161"/>
        <path id="Path_7393" data-name="Path 7393" d="M222.942,90.985a.887.887,0,0,1-.893-.882v-.018a.88.88,0,0,1,.882-.88h3.391c.145.222-.964,1.775-3.38,1.78" transform="translate(134.666 54.1)" fill="#616161"/>
        <path id="Path_7394" data-name="Path 7394" d="M219.392,90.985a.886.886,0,0,0,.893-.882v-.018a.88.88,0,0,0-.882-.88h-3.391c-.145.222.964,1.775,3.38,1.78" transform="translate(130.997 54.1)" fill="#616161"/>
        <path id="Path_7395" data-name="Path 7395" d="M217.374,85.913v1.47H218.9a3.27,3.27,0,0,0,.418,1.009l-1.081,1.081,1.041,1.039,1.081-1.081a3.247,3.247,0,0,0,1.007.419v1.528h1.471V89.851a3.247,3.247,0,0,0,1.007-.419l1.081,1.081,1.039-1.039-1.08-1.081a3.271,3.271,0,0,0,.418-1.009h1.528v-1.47h-1.528a3.271,3.271,0,0,0-.418-1.009l1.08-1.081-1.039-1.039-1.081,1.081a3.247,3.247,0,0,0-1.007-.419V81.918h-1.471v1.528a3.247,3.247,0,0,0-1.007.419l-1.081-1.081-1.041,1.039,1.081,1.081a3.27,3.27,0,0,0-.418,1.009Zm4.358-.845a1.624,1.624,0,0,1,1.95,1.95,1.607,1.607,0,0,1-1.208,1.21,1.623,1.623,0,1,1-.742-3.16" transform="translate(131.831 49.681)" fill="#ffc775"/>
        <path id="Path_7396" data-name="Path 7396" d="M220.995,78.478h3.4a.478.478,0,0,1,.479.479V81.4a.478.478,0,0,1-.479.479h-3.4a.479.479,0,0,1-.479-.479V78.957a.479.479,0,0,1,.479-.479" transform="translate(133.737 47.595)" fill="#ffc775"/>
        <path id="Path_7397" data-name="Path 7397" d="M217.885,78.478h3.4a.478.478,0,0,1,.479.479V81.4a.478.478,0,0,1-.479.479h-3.4a.479.479,0,0,1-.479-.479V78.957a.479.479,0,0,1,.479-.479" transform="translate(131.851 47.595)" fill="#ffc775"/>
        <path id="Path_7398" data-name="Path 7398" d="M220.995,76.1h3.4a.478.478,0,0,1,.479.479V79.02a.479.479,0,0,1-.479.477h-3.4a.48.48,0,0,1-.479-.477V76.575a.479.479,0,0,1,.479-.479" transform="translate(133.737 46.15)" fill="#ffc775"/>
        <path id="Path_7399" data-name="Path 7399" d="M217.885,76.1h3.4a.478.478,0,0,1,.479.479V79.02a.479.479,0,0,1-.479.477h-3.4a.48.48,0,0,1-.479-.477V76.575a.479.479,0,0,1,.479-.479" transform="translate(131.851 46.15)" fill="#ffc775"/>
        <path id="Path_7400" data-name="Path 7400" d="M220.995,73.714h3.4a.478.478,0,0,1,.479.479v2.445a.478.478,0,0,1-.479.477h-3.4a.479.479,0,0,1-.479-.477V74.193a.479.479,0,0,1,.479-.479" transform="translate(133.737 44.705)" fill="#ffc775"/>
        <path id="Path_7401" data-name="Path 7401" d="M217.885,73.714h3.4a.478.478,0,0,1,.479.479v2.445a.478.478,0,0,1-.479.477h-3.4a.479.479,0,0,1-.479-.477V74.193a.479.479,0,0,1,.479-.479" transform="translate(131.851 44.705)" fill="#ffc775"/>
        <g id="Group_46205" data-name="Group 46205" transform="translate(344.455 116.227)" opacity="0.15">
          <g id="Group_46204" data-name="Group 46204">
            <g id="Group_46203" data-name="Group 46203" clip-path="url(#clip-path-16)">
              <path id="Path_7402" data-name="Path 7402" d="M214.417,100.057V74.614a2.265,2.265,0,0,1,2.265-2.265h7.292v29.974h-7.292a2.265,2.265,0,0,1-2.265-2.265" transform="translate(-214.417 -72.349)"/>
            </g>
          </g>
        </g>
        <path id="Path_7403" data-name="Path 7403" d="M256.675,77.571a.6.6,0,0,1-.6-.6v-2.41a.6.6,0,1,1,1.2,0v2.41a.6.6,0,0,1-.6.6" transform="translate(155.301 44.852)" fill="#adede0"/>
        <path id="Path_7404" data-name="Path 7404" d="M256.675,74.26a.6.6,0,0,1-.6-.6V69.98a.6.6,0,1,1,1.2,0v3.677a.6.6,0,0,1-.6.6" transform="translate(155.301 42.076)" fill="#adede0"/>
        <path id="Path_7405" data-name="Path 7405" d="M256.675,69.2a.6.6,0,0,1-.6-.6v-2.41a.6.6,0,1,1,1.2,0V68.6a.6.6,0,0,1-.6.6" transform="translate(155.301 39.778)" fill="#adede0"/>
        <path id="Path_7406" data-name="Path 7406" d="M257.763,67.4a3.483,3.483,0,1,1,3.484-3.483,3.487,3.487,0,0,1-3.484,3.483m0-5.761a2.278,2.278,0,1,0,2.28,2.278,2.28,2.28,0,0,0-2.28-2.278" transform="translate(154.214 36.655)" fill="#adede0"/>
        <path id="Path_7407" data-name="Path 7407" d="M206.733,31.274a3.483,3.483,0,1,1,3.483-3.483,3.487,3.487,0,0,1-3.483,3.483m0-5.761a2.278,2.278,0,1,0,2.278,2.278,2.28,2.28,0,0,0-2.278-2.278" transform="translate(123.265 14.742)" fill="#adede0"/>
        <path id="Path_7408" data-name="Path 7408" d="M174.592,46.262a3.483,3.483,0,1,1,3.483-3.483,3.487,3.487,0,0,1-3.483,3.483m0-5.761a2.278,2.278,0,1,0,2.278,2.278,2.28,2.28,0,0,0-2.278-2.278" transform="translate(103.773 23.832)" fill="#adede0"/>
        <path id="Path_7409" data-name="Path 7409" d="M202.223,27.306h-2.41a.6.6,0,1,1,0-1.2h2.41a.6.6,0,0,1,0,1.2" transform="translate(120.816 15.83)" fill="#adede0"/>
        <path id="Path_7410" data-name="Path 7410" d="M208.76,27.306h-4.429a.6.6,0,1,1,0-1.2h4.429a.6.6,0,1,1,0,1.2m-8.858,0h-4.427a.6.6,0,0,1,0-1.2H199.9a.6.6,0,0,1,0,1.2m-8.856,0h-4.429a.6.6,0,1,1,0-1.2h4.429a.6.6,0,1,1,0,1.2m-8.856,0H177.76a.6.6,0,0,1,0-1.2h4.429a.6.6,0,1,1,0,1.2" transform="translate(107.441 15.83)" fill="#adede0"/>
        <path id="Path_7411" data-name="Path 7411" d="M173.5,29.716a.6.6,0,0,1-.6-.6V26.1h3.012a.6.6,0,0,1,0,1.2h-1.807v1.807a.6.6,0,0,1-.6.6" transform="translate(104.86 15.83)" fill="#adede0"/>
        <path id="Path_7412" data-name="Path 7412" d="M173.5,36.094a.6.6,0,0,1-.6-.6V31a.6.6,0,1,1,1.2,0v4.492a.6.6,0,0,1-.6.6" transform="translate(104.86 18.435)" fill="#adede0"/>
        <path id="Path_7413" data-name="Path 7413" d="M173.5,39.6a.6.6,0,0,1-.6-.6v-2.41a.6.6,0,0,1,1.2,0V39a.6.6,0,0,1-.6.6" transform="translate(104.86 21.827)" fill="#adede0"/>
        <path id="Path_7414" data-name="Path 7414" d="M220.743,117.736a.6.6,0,0,1-.6-.6v-2.41a.6.6,0,0,1,1.2,0v2.41a.6.6,0,0,1-.6.6" transform="translate(133.509 69.211)" fill="#adede0"/>
        <path id="Path_7415" data-name="Path 7415" d="M220.743,117.817a.6.6,0,0,1-.6-.6v-4.885a.6.6,0,0,1,1.2,0v4.885a.6.6,0,0,1-.6.6m0-9.769a.6.6,0,0,1-.6-.6V102.56a.6.6,0,1,1,1.2,0v4.885a.6.6,0,0,1-.6.6" transform="translate(133.509 61.835)" fill="#adede0"/>
        <path id="Path_7416" data-name="Path 7416" d="M220.743,101.032a.6.6,0,0,1-.6-.6v-2.41a.6.6,0,0,1,1.2,0v2.41a.6.6,0,0,1-.6.6" transform="translate(133.509 59.081)" fill="#adede0"/>
        <path id="Path_7417" data-name="Path 7417" d="M221.831,99.232a3.483,3.483,0,1,1,3.483-3.483,3.487,3.487,0,0,1-3.483,3.483m0-5.761a2.278,2.278,0,1,0,2.278,2.278,2.28,2.28,0,0,0-2.278-2.278" transform="translate(132.422 55.957)" fill="#adede0"/>
        <path id="Path_7418" data-name="Path 7418" d="M221.831,124.243a3.484,3.484,0,1,1,3.483-3.484,3.488,3.488,0,0,1-3.483,3.484m0-5.762a2.279,2.279,0,1,0,2.278,2.278,2.28,2.28,0,0,0-2.278-2.278" transform="translate(132.422 71.125)" fill="#adede0"/>
        <path id="Path_7419" data-name="Path 7419" d="M219.887,107.724h-2.41a.6.6,0,1,1,0-1.2h2.41a.6.6,0,0,1,0,1.2" transform="translate(131.529 64.601)" fill="#adede0"/>
        <path id="Path_7420" data-name="Path 7420" d="M215.336,107.724h-2.41a.6.6,0,0,1,0-1.2h2.41a.6.6,0,0,1,0,1.2" transform="translate(128.768 64.601)" fill="#adede0"/>
        <path id="Path_7421" data-name="Path 7421" d="M210.428,111.692a3.483,3.483,0,1,1,3.483-3.483,3.487,3.487,0,0,1-3.483,3.483m0-5.761a2.278,2.278,0,1,0,2.278,2.278,2.28,2.28,0,0,0-2.278-2.278" transform="translate(125.506 63.513)" fill="#adede0"/>
        <path id="Path_7422" data-name="Path 7422" d="M224.685,101.885h-2.41a.6.6,0,0,1,0-1.2h2.41a.6.6,0,0,1,0,1.2" transform="translate(134.438 61.06)" fill="#adede0"/>
        <path id="Path_7423" data-name="Path 7423" d="M229.784,101.885h-2.41a.6.6,0,0,1,0-1.2h2.41a.6.6,0,0,1,0,1.2" transform="translate(137.531 61.06)" fill="#adede0"/>
        <path id="Path_7424" data-name="Path 7424" d="M233.538,105.853a3.483,3.483,0,1,1,3.484-3.483,3.487,3.487,0,0,1-3.484,3.483m0-5.761a2.278,2.278,0,1,0,2.28,2.278,2.28,2.28,0,0,0-2.28-2.278" transform="translate(139.522 59.972)" fill="#adede0"/>
        <path id="Path_7425" data-name="Path 7425" d="M299.326,179.891h-2.41a.6.6,0,1,1,0-1.2h2.41a.6.6,0,0,1,0,1.2" transform="translate(179.706 108.368)" fill="#adede0"/>
        <path id="Path_7426" data-name="Path 7426" d="M303.056,179.891H300.2a.6.6,0,0,1,0-1.2h2.86a.6.6,0,0,1,0,1.2" transform="translate(181.695 108.368)" fill="#adede0"/>
        <path id="Path_7427" data-name="Path 7427" d="M306.167,179.891h-2.41a.6.6,0,0,1,0-1.2h2.41a.6.6,0,0,1,0,1.2" transform="translate(183.855 108.368)" fill="#adede0"/>
        <path id="Path_7428" data-name="Path 7428" d="M309.683,183.859a3.483,3.483,0,1,1,3.483-3.483,3.488,3.488,0,0,1-3.483,3.483m0-5.761a2.278,2.278,0,1,0,2.278,2.278,2.28,2.28,0,0,0-2.278-2.278" transform="translate(185.702 107.281)" fill="#adede0"/>
        <path id="Path_7429" data-name="Path 7429" d="M294.707,183.859a3.483,3.483,0,1,1,3.483-3.483,3.488,3.488,0,0,1-3.483,3.483m0-5.761a2.278,2.278,0,1,0,2.278,2.278,2.282,2.282,0,0,0-2.278-2.278" transform="translate(176.618 107.281)" fill="#adede0"/>
        <path id="Path_7430" data-name="Path 7430" d="M140.53,109.256a.6.6,0,0,1-.6-.6v-2.41a.6.6,0,1,1,1.2,0v2.41a.6.6,0,0,1-.6.6" transform="translate(84.862 64.068)" fill="#adede0"/>
        <path id="Path_7431" data-name="Path 7431" d="M140.53,171.811a.6.6,0,0,1-.6-.6v-4.66a.6.6,0,0,1,1.2,0v4.66a.6.6,0,0,1-.6.6m0-9.318a.6.6,0,0,1-.6-.6v-4.659a.6.6,0,0,1,1.2,0v4.659a.6.6,0,0,1-.6.6m0-9.319a.6.6,0,0,1-.6-.6v-4.657a.6.6,0,1,1,1.2,0v4.657a.6.6,0,0,1-.6.6m0-9.318a.6.6,0,0,1-.6-.6V138.6a.6.6,0,1,1,1.2,0v4.657a.6.6,0,0,1-.6.6m0-9.316a.6.6,0,0,1-.6-.6v-4.66a.6.6,0,0,1,1.2,0v4.66a.6.6,0,0,1-.6.6m0-9.318a.6.6,0,0,1-.6-.6v-4.66a.6.6,0,0,1,1.2,0v4.66a.6.6,0,0,1-.6.6m0-9.318a.6.6,0,0,1-.6-.6v-4.659a.6.6,0,0,1,1.2,0V115.3a.6.6,0,0,1-.6.6" transform="translate(84.862 66.737)" fill="#adede0"/>
        <path id="Path_7432" data-name="Path 7432" d="M140.53,154.256a.6.6,0,0,1-.6-.6v-2.41a.6.6,0,0,1,1.2,0v2.41a.6.6,0,0,1-.6.6" transform="translate(84.862 91.359)" fill="#adede0"/>
        <path id="Path_7433" data-name="Path 7433" d="M141.618,107.206a3.482,3.482,0,1,1,3.483-3.481,3.485,3.485,0,0,1-3.483,3.481m0-5.759a2.277,2.277,0,1,0,2.278,2.278,2.28,2.28,0,0,0-2.278-2.278" transform="translate(83.775 60.794)" fill="#adede0"/>
        <path id="Path_7434" data-name="Path 7434" d="M141.618,160.881A3.483,3.483,0,1,1,145.1,157.4a3.487,3.487,0,0,1-3.483,3.483m0-5.761A2.278,2.278,0,1,0,143.9,157.4a2.28,2.28,0,0,0-2.278-2.278" transform="translate(83.775 93.345)" fill="#adede0"/>
        <path id="Path_7435" data-name="Path 7435" d="M128.594,147.664h-2.41a.6.6,0,1,1,0-1.2h2.41a.6.6,0,0,1,0,1.2" transform="translate(76.162 88.823)" fill="#adede0"/>
        <path id="Path_7436" data-name="Path 7436" d="M135.983,147.664h-5.115a.6.6,0,0,1,0-1.2h5.115a.6.6,0,1,1,0,1.2" transform="translate(79.003 88.823)" fill="#adede0"/>
        <path id="Path_7437" data-name="Path 7437" d="M139.647,147.664h-2.41a.6.6,0,0,1,0-1.2h2.41a.6.6,0,1,1,0,1.2" transform="translate(82.865 88.823)" fill="#adede0"/>
        <path id="Path_7438" data-name="Path 7438" d="M123.82,151.633a3.484,3.484,0,1,1,3.483-3.484,3.488,3.488,0,0,1-3.483,3.484m0-5.762a2.279,2.279,0,1,0,2.278,2.278,2.282,2.282,0,0,0-2.278-2.278" transform="translate(72.98 87.736)" fill="#adede0"/>
        <path id="Path_7439" data-name="Path 7439" d="M257.763,83.888a3.483,3.483,0,1,1,3.484-3.483,3.487,3.487,0,0,1-3.484,3.483m0-5.761a2.278,2.278,0,1,0,2.28,2.278,2.28,2.28,0,0,0-2.28-2.278" transform="translate(154.214 46.651)" fill="#adede0"/>
        <path id="Path_7440" data-name="Path 7440" d="M266.388,145.736h-2.41a.6.6,0,0,1,0-1.2h2.41a.6.6,0,0,1,0,1.2" transform="translate(159.73 87.654)" fill="#adede0"/>
        <path id="Path_7441" data-name="Path 7441" d="M261.008,145.736H258.6a.6.6,0,0,1,0-1.2h2.41a.6.6,0,0,1,0,1.2" transform="translate(156.467 87.654)" fill="#adede0"/>
        <path id="Path_7442" data-name="Path 7442" d="M256.1,149.7a3.483,3.483,0,1,1,3.483-3.483A3.488,3.488,0,0,1,256.1,149.7m0-5.761a2.278,2.278,0,1,0,2.278,2.278,2.28,2.28,0,0,0-2.278-2.278" transform="translate(153.205 86.567)" fill="#adede0"/>
        <path id="Path_7443" data-name="Path 7443" d="M271.564,155.611h-2.41a.6.6,0,0,1,0-1.2h2.41a.6.6,0,0,1,0,1.2" transform="translate(162.869 93.643)" fill="#adede0"/>
        <path id="Path_7444" data-name="Path 7444" d="M276.6,155.611h-3.664a.6.6,0,1,1,0-1.2H276.6a.6.6,0,1,1,0,1.2" transform="translate(165.163 93.643)" fill="#adede0"/>
        <path id="Path_7445" data-name="Path 7445" d="M279.909,155.611H277.5a.6.6,0,0,1,0-1.2h2.41a.6.6,0,0,1,0,1.2" transform="translate(167.93 93.643)" fill="#adede0"/>
        <path id="Path_7446" data-name="Path 7446" d="M283.427,159.579a3.483,3.483,0,1,1,3.483-3.483,3.488,3.488,0,0,1-3.483,3.483m0-5.761A2.278,2.278,0,1,0,285.7,156.1a2.279,2.279,0,0,0-2.278-2.278" transform="translate(169.778 92.555)" fill="#adede0"/>
        <path id="Path_7447" data-name="Path 7447" d="M267.271,161.673a.6.6,0,0,1-.6-.6v-2.41a.6.6,0,1,1,1.2,0v2.41a.6.6,0,0,1-.6.6" transform="translate(161.727 95.858)" fill="#adede0"/>
        <path id="Path_7448" data-name="Path 7448" d="M267.271,172.573a.6.6,0,0,1-.6-.6v-4.8a.6.6,0,1,1,1.2,0v4.8a.6.6,0,0,1-.6.6m0-9.592a.6.6,0,0,1-.6-.6v-4.8a.6.6,0,1,1,1.2,0v4.8a.6.6,0,0,1-.6.6m0-9.592a.6.6,0,0,1-.6-.6v-4.8a.6.6,0,1,1,1.2,0v4.8a.6.6,0,0,1-.6.6m0-9.591a.6.6,0,0,1-.6-.6v-4.8a.6.6,0,1,1,1.2,0v4.8a.6.6,0,0,1-.6.6m0-9.592a.6.6,0,0,1-.6-.6v-4.8a.6.6,0,1,1,1.2,0v4.8a.6.6,0,0,1-.6.6" transform="translate(161.727 77.752)" fill="#adede0"/>
        <path id="Path_7449" data-name="Path 7449" d="M267.271,127.334a.6.6,0,0,1-.6-.6v-2.41a.6.6,0,1,1,1.2,0v2.41a.6.6,0,0,1-.6.6" transform="translate(161.727 75.032)" fill="#adede0"/>
        <path id="Path_7450" data-name="Path 7450" d="M268.359,125.534a3.483,3.483,0,1,1,3.483-3.483,3.488,3.488,0,0,1-3.483,3.483m0-5.761a2.278,2.278,0,1,0,2.278,2.278,2.28,2.28,0,0,0-2.278-2.278" transform="translate(160.64 71.908)" fill="#adede0"/>
        <path id="Path_7451" data-name="Path 7451" d="M268.359,168.531a3.483,3.483,0,1,1,3.483-3.483,3.488,3.488,0,0,1-3.483,3.483m0-5.761a2.278,2.278,0,1,0,2.278,2.278,2.28,2.28,0,0,0-2.278-2.278" transform="translate(160.64 97.985)" fill="#adede0"/>
      </g>
    </g>
  </g>
</svg>
