<svg id="Group_46156" data-name="Group 46156" xmlns="http://www.w3.org/2000/svg" xmlns:xlink="http://www.w3.org/1999/xlink" width="462.127" height="292.028" viewBox="0 0 462.127 292.028">
  <defs>
    <clipPath id="clip-path">
      <rect id="Rectangle_6835" data-name="Rectangle 6835" width="30.784" height="30.875" fill="none"/>
    </clipPath>
    <clipPath id="clip-path-2">
      <rect id="Rectangle_6840" data-name="Rectangle 6840" width="18.988" height="16.521" fill="none"/>
    </clipPath>
    <clipPath id="clip-path-3">
      <rect id="Rectangle_6841" data-name="Rectangle 6841" width="13.36" height="11.64" fill="none"/>
    </clipPath>
    <clipPath id="clip-path-4">
      <rect id="Rectangle_6847" data-name="Rectangle 6847" width="18.989" height="16.521" fill="none"/>
    </clipPath>
    <clipPath id="clip-path-9">
      <rect id="Rectangle_6859" data-name="Rectangle 6859" width="13.361" height="11.64" fill="none"/>
    </clipPath>
    <clipPath id="clip-path-15">
      <rect id="Rectangle_6883" data-name="Rectangle 6883" width="30.785" height="30.875" fill="none"/>
    </clipPath>
    <clipPath id="clip-path-18">
      <rect id="Rectangle_6891" data-name="Rectangle 6891" width="30.785" height="41.618" fill="none"/>
    </clipPath>
  </defs>
  <g id="Group_48351" data-name="Group 48351">
    <path id="Path_7172" data-name="Path 7172" d="M371.563,121.825v6.364h-3.612v58.664h18.3v-8.5h40.313V282.623H318.349V128.189h-4.813v-6.364Z" transform="translate(21.436 8.329)" fill="#f7a3a4"/>
    <path id="Path_7173" data-name="Path 7173" d="M6.532,187.329h45.7V116.691h60.708V283.219H11.622V193.693H6.532Z" transform="translate(0.447 7.978)" fill="#f7a3a4"/>
    <g id="Group_46107" data-name="Group 46107">
      <g id="Group_48350" data-name="Group 48350">
        <path id="Path_7174" data-name="Path 7174" d="M246.267,28.652s95.187,154.394,142.925,102.737c0,0,25.962-29.648,9.84-33.236-20.159-4.485-33.866,43.928-57.049,71.471-41.452,49.244-139.514-2.385-139.514-2.385" transform="translate(13.842 1.959)" fill="none" stroke="#f7a3a4" stroke-width="0.727" stroke-dasharray="3.895 3.895"/>
        <path id="Path_7175" data-name="Path 7175" d="M235.627,8.005c-.068-.161,8.391,5.059,8.391,5.059L241.85,27.3l-4.166-10.639L226.763,14.6,211.177,0Z" transform="translate(14.438)" fill="#f64e50"/>
        <path id="Path_7176" data-name="Path 7176" d="M211.177,0,241.85,27.3l-4.166-10.639Z" transform="translate(14.438)" fill="#bc1b1d"/>
        <path id="Path_7177" data-name="Path 7177" d="M211.177,0,251.7,8.525l-7.685,4.541L211.177,0l26.507,16.663-13.069,8.1Z" transform="translate(14.438)" fill="#ed2225"/>
        <path id="Path_7178" data-name="Path 7178" d="M161.634,59.719A66.189,66.189,0,0,1,166.46,54.7c3.3-2.841,7.091-7.861,19.2-4.16a28.43,28.43,0,0,1,2.761,1.052c1.068.453,4.376.465,7.764-2.225,5.383-4.275,7.489-7.5,14.864-7.6,8.582-.116,9.932,10.581,16.6,13.32,4.245,1.743,15.443,3.474,17.76,4.247Z" transform="translate(11.051 2.855)" fill="#fff"/>
        <path id="Path_7179" data-name="Path 7179" d="M32.722,22.5a44.572,44.572,0,0,1,3.259-3.389c2.231-1.919,4.788-5.309,12.968-2.81a19.174,19.174,0,0,1,1.864.712c.721.306,2.955.313,5.242-1.5,3.636-2.887,5.057-5.065,10.037-5.132C71.887,10.3,72.8,17.52,77.3,19.37c2.866,1.176,10.428,2.346,11.992,2.868Z" transform="translate(2.237 0.709)" fill="#fff"/>
        <path id="Path_7180" data-name="Path 7180" d="M416.154,241.265A16.256,16.256,0,1,1,399.9,225.009a16.256,16.256,0,0,1,16.256,16.256" transform="translate(26.229 15.384)" fill="#ed2225"/>
        <path id="Path_7181" data-name="Path 7181" d="M411.014,220.582a11.427,11.427,0,1,1-11.427-11.427,11.428,11.428,0,0,1,11.427,11.427" transform="translate(26.538 14.3)" fill="#ed2225"/>
        <line id="Line_49" data-name="Line 49" y2="61.851" transform="translate(426.126 229.805)" fill="none" stroke="#384aae" stroke-width="1"/>
        <line id="Line_50" data-name="Line 50" x2="5.985" y2="8.055" transform="translate(420.14 252.966)" fill="none" stroke="#384aae" stroke-width="1"/>
        <line id="Line_51" data-name="Line 51" x1="5.45" y2="8.514" transform="translate(426.125 244.928)" fill="none" stroke="#384aae" stroke-width="1"/>
        <path id="Path_7182" data-name="Path 7182" d="M48.045,241.265a16.256,16.256,0,1,1-16.256-16.256,16.256,16.256,0,0,1,16.256,16.256" transform="translate(1.062 15.384)" fill="#ed2225"/>
        <path id="Path_7183" data-name="Path 7183" d="M42.905,220.582a11.427,11.427,0,1,1-11.427-11.427,11.428,11.428,0,0,1,11.427,11.427" transform="translate(1.371 14.3)" fill="#ed2225"/>
        <line id="Line_52" data-name="Line 52" y2="61.851" transform="translate(32.85 229.805)" fill="none" stroke="#384aae" stroke-width="1"/>
        <line id="Line_53" data-name="Line 53" x2="5.985" y2="8.055" transform="translate(26.865 252.966)" fill="none" stroke="#384aae" stroke-width="1"/>
        <line id="Line_54" data-name="Line 54" x1="5.45" y2="8.514" transform="translate(32.849 244.928)" fill="none" stroke="#384aae" stroke-width="1"/>
        <path id="Path_7184" data-name="Path 7184" d="M409.612,74.964H298.207a5.29,5.29,0,0,1-5.29-5.289V48.927a5.29,5.29,0,0,1,5.29-5.289H409.612a5.289,5.289,0,0,1,5.289,5.289V69.674a5.289,5.289,0,0,1-5.289,5.289" transform="translate(20.026 2.983)" fill="#f7a3a4"/>
        <path id="Path_7185" data-name="Path 7185" d="M301.574,69.043l5.054,9.816a1.751,1.751,0,0,0,3.052.111l6.059-9.927Z" transform="translate(20.618 4.72)" fill="#f7a3a4"/>
        <path id="Path_7186" data-name="Path 7186" d="M322.369,52.188l1.5,3.036a.679.679,0,0,0,.513.373l3.351.487a.681.681,0,0,1,.377,1.162l-2.425,2.364a.682.682,0,0,0-.2.6l.573,3.338a.681.681,0,0,1-.988.719l-3-1.576a.68.68,0,0,0-.635,0l-3,1.576a.682.682,0,0,1-.989-.719l.573-3.338a.679.679,0,0,0-.2-.6l-2.425-2.364a.681.681,0,0,1,.377-1.162l3.351-.487a.678.678,0,0,0,.513-.373l1.5-3.036a.682.682,0,0,1,1.222,0" transform="translate(21.55 3.542)" fill="#bc1b1d"/>
        <path id="Path_7187" data-name="Path 7187" d="M337.27,52.188l1.5,3.036a.679.679,0,0,0,.513.373l3.351.487a.681.681,0,0,1,.377,1.162l-2.425,2.364a.682.682,0,0,0-.2.6l.573,3.338a.682.682,0,0,1-.989.719l-3-1.576a.68.68,0,0,0-.635,0l-3,1.576a.682.682,0,0,1-.989-.719l.573-3.338a.682.682,0,0,0-.2-.6l-2.425-2.364a.681.681,0,0,1,.377-1.162l3.351-.487a.678.678,0,0,0,.513-.373l1.5-3.036a.682.682,0,0,1,1.222,0" transform="translate(22.568 3.542)" fill="#bc1b1d"/>
        <path id="Path_7188" data-name="Path 7188" d="M352.171,52.188l1.5,3.036a.679.679,0,0,0,.513.373l3.351.487a.681.681,0,0,1,.377,1.162l-2.425,2.364a.682.682,0,0,0-.2.6l.573,3.338a.682.682,0,0,1-.989.719l-3-1.576a.68.68,0,0,0-.635,0l-3,1.576a.682.682,0,0,1-.989-.719l.573-3.338a.679.679,0,0,0-.2-.6l-2.425-2.364a.681.681,0,0,1,.377-1.162l3.351-.487a.678.678,0,0,0,.513-.373l1.5-3.036a.682.682,0,0,1,1.222,0" transform="translate(23.587 3.542)" fill="#bc1b1d"/>
        <path id="Path_7189" data-name="Path 7189" d="M367.072,52.188l1.5,3.036a.679.679,0,0,0,.513.373l3.351.487a.681.681,0,0,1,.377,1.162l-2.425,2.364a.682.682,0,0,0-.2.6l.573,3.338a.682.682,0,0,1-.989.719l-3-1.576a.68.68,0,0,0-.635,0l-3,1.576a.682.682,0,0,1-.989-.719l.573-3.338a.682.682,0,0,0-.2-.6l-2.425-2.364a.681.681,0,0,1,.377-1.162l3.351-.487a.678.678,0,0,0,.513-.373l1.5-3.036a.682.682,0,0,1,1.222,0" transform="translate(24.606 3.542)" fill="#fff"/>
        <path id="Path_7190" data-name="Path 7190" d="M387.712,57.252a.681.681,0,0,0-.377-1.166l-3.348-.491a.69.69,0,0,1-.514-.366l-1.5-3.04a.619.619,0,0,0-.446-.334v-.02a.476.476,0,0,0-.172-.021.674.674,0,0,0-.445.182.544.544,0,0,0-.159.194l-1.5,3.04a.712.712,0,0,1-.514.366l-3.348.491a.687.687,0,0,0-.388,1.166l2.434,2.354a.7.7,0,0,1,.194.6l-.572,3.338a.678.678,0,0,0,.983.719l2.867-1.507.138-.068a.768.768,0,0,1,.308-.081.737.737,0,0,1,.32.081l2.994,1.576a.686.686,0,0,0,.995-.719L385.1,60.21a.7.7,0,0,1,.194-.6Z" transform="translate(25.625 3.542)" fill="#fff"/>
        <path id="Path_7191" data-name="Path 7191" d="M119.37,70.49A27.668,27.668,0,1,1,91.7,42.822,27.669,27.669,0,0,1,119.37,70.49" transform="translate(4.378 2.928)" fill="#f7a3a4"/>
        <path id="Path_7192" data-name="Path 7192" d="M101.162,64.129a10.555,10.555,0,1,0-19.956,4.783h-.012l.085.155c.04.073.079.144.12.217l9.207,16.649L99.83,69.257c.031-.056.063-.111.093-.168l.043-.077H99.96a10.5,10.5,0,0,0,1.2-4.882m-10.555,3.4a4.215,4.215,0,1,1,4.215-4.215,4.214,4.214,0,0,1-4.215,4.215" transform="translate(5.473 3.663)" fill="#fafafa"/>
        <rect id="Rectangle_6833" data-name="Rectangle 6833" width="65.931" height="52.335" transform="translate(70.561 166.379)" fill="#ed2225"/>
        <g id="Group_46066" data-name="Group 46066" transform="translate(87.478 172.022)" opacity="0.32">
          <g id="Group_46065" data-name="Group 46065">
            <g id="Group_46064" data-name="Group 46064" clip-path="url(#clip-path)">
              <rect id="Rectangle_6834" data-name="Rectangle 6834" width="30.784" height="30.875" transform="translate(0)" fill="#fff"/>
            </g>
          </g>
        </g>
        <rect id="Rectangle_6836" data-name="Rectangle 6836" width="18.694" height="18.867" transform="translate(93.443 177.744)" fill="#e1f1fc"/>
        <path id="Path_7193" data-name="Path 7193" d="M113.645,196.006H81.017V160.153h32.628Zm-30.784-1.842H111.8V161.994H82.861Z" transform="translate(5.539 10.949)" fill="#bc1b1d"/>
        <rect id="Rectangle_6837" data-name="Rectangle 6837" width="38.585" height="8.525" transform="translate(83.577 200.65)" fill="#bc1b1d"/>
        <rect id="Rectangle_6838" data-name="Rectangle 6838" width="38.585" height="4.049" transform="translate(83.577 209.175)" fill="#f74e50"/>
        <g id="Group_46069" data-name="Group 46069" transform="translate(93.756 177.028)" opacity="0.72">
          <g id="Group_46068" data-name="Group 46068">
            <g id="Group_46067" data-name="Group 46067" clip-path="url(#clip-path-2)">
              <rect id="Rectangle_6839" data-name="Rectangle 6839" width="23.314" height="1.88" transform="matrix(0.763, -0.647, 0.647, 0.763, -0.004, 15.083)" fill="#fff"/>
            </g>
          </g>
        </g>
        <g id="Group_46072" data-name="Group 46072" transform="translate(92.984 177.429)" opacity="0.72">
          <g id="Group_46071" data-name="Group 46071">
            <g id="Group_46070" data-name="Group 46070" clip-path="url(#clip-path-3)">
              <path id="Path_7194" data-name="Path 7194" d="M87.949,177.715l-.915-1.074L99.48,166.075l.915,1.074Z" transform="translate(-87.034 -166.075)" fill="#fff"/>
            </g>
          </g>
        </g>
        <path id="Path_7195" data-name="Path 7195" d="M107.138,186.217H86.6V165.508h20.538Zm-18.694-1.842H105.3V167.349H88.444Z" transform="translate(5.921 11.315)" fill="#bc1b1d"/>
        <rect id="Rectangle_6842" data-name="Rectangle 6842" width="71.52" height="8.629" transform="translate(64.973 157.75)" fill="#bc1b1d"/>
        <rect id="Rectangle_6843" data-name="Rectangle 6843" width="2.969" height="53.256" transform="translate(133.524 166.379)" fill="#bc1b1d"/>
        <rect id="Rectangle_6844" data-name="Rectangle 6844" width="77.828" height="47.887" transform="translate(58.664 243.641)" fill="#ed2225"/>
        <rect id="Rectangle_6845" data-name="Rectangle 6845" width="18.694" height="18.867" transform="translate(69.639 251.011)" fill="#e1f1fc"/>
        <g id="Group_46075" data-name="Group 46075" transform="translate(69.953 250.293)" opacity="0.72">
          <g id="Group_46074" data-name="Group 46074">
            <g id="Group_46073" data-name="Group 46073" clip-path="url(#clip-path-4)">
              <rect id="Rectangle_6846" data-name="Rectangle 6846" width="23.314" height="1.88" transform="translate(-0.004 15.083) rotate(-40.297)" fill="#fff"/>
            </g>
          </g>
        </g>
        <g id="Group_46078" data-name="Group 46078" transform="translate(69.182 250.695)" opacity="0.72">
          <g id="Group_46077" data-name="Group 46077">
            <g id="Group_46076" data-name="Group 46076" clip-path="url(#clip-path-3)">
              <path id="Path_7196" data-name="Path 7196" d="M65.669,246.292l-.915-1.075L77.2,234.652l.915,1.074Z" transform="translate(-64.754 -234.652)" fill="#fff"/>
            </g>
          </g>
        </g>
        <path id="Path_7197" data-name="Path 7197" d="M84.858,254.794H64.32V234.085H84.858Zm-18.694-1.842H83.015V235.926H66.164Z" transform="translate(4.397 16.004)" fill="#bc1b1d"/>
        <rect id="Rectangle_6849" data-name="Rectangle 6849" width="18.694" height="18.867" transform="translate(103.576 251.011)" fill="#e1f1fc"/>
        <g id="Group_46081" data-name="Group 46081" transform="translate(103.89 250.293)" opacity="0.72">
          <g id="Group_46080" data-name="Group 46080">
            <g id="Group_46079" data-name="Group 46079" clip-path="url(#clip-path-4)">
              <rect id="Rectangle_6850" data-name="Rectangle 6850" width="23.313" height="1.879" transform="translate(-0.004 15.083) rotate(-40.297)" fill="#fff"/>
            </g>
          </g>
        </g>
        <g id="Group_46084" data-name="Group 46084" transform="translate(103.118 250.695)" opacity="0.72">
          <g id="Group_46083" data-name="Group 46083">
            <g id="Group_46082" data-name="Group 46082" clip-path="url(#clip-path-3)">
              <path id="Path_7198" data-name="Path 7198" d="M97.434,246.292l-.915-1.075,12.446-10.565.913,1.074Z" transform="translate(-96.52 -234.652)" fill="#fff"/>
            </g>
          </g>
        </g>
        <path id="Path_7199" data-name="Path 7199" d="M116.623,254.794H96.085V234.085h20.538Zm-18.694-1.842H114.78V235.926H97.929Z" transform="translate(6.569 16.004)" fill="#bc1b1d"/>
        <path id="Path_7200" data-name="Path 7200" d="M132.939,204.349l-65.931.394L51.986,220.033h80.952Z" transform="translate(3.554 13.971)" fill="#bc1b1d"/>
        <rect id="Rectangle_6853" data-name="Rectangle 6853" width="80.952" height="9.637" transform="translate(55.54 234.005)" fill="#bc1b1d"/>
        <rect id="Rectangle_6854" data-name="Rectangle 6854" width="2.969" height="47.887" transform="translate(133.524 243.641)" fill="#bc1b1d"/>
        <rect id="Rectangle_6855" data-name="Rectangle 6855" width="77.828" height="47.887" transform="translate(322.501 243.641)" fill="#ed2225"/>
        <rect id="Rectangle_6856" data-name="Rectangle 6856" width="18.694" height="18.867" transform="translate(370.66 251.011)" fill="#e1f1fc"/>
        <g id="Group_46087" data-name="Group 46087" transform="translate(370.053 250.293)" opacity="0.72">
          <g id="Group_46086" data-name="Group 46086">
            <g id="Group_46085" data-name="Group 46085" clip-path="url(#clip-path-2)">
              <rect id="Rectangle_6857" data-name="Rectangle 6857" width="1.88" height="23.314" transform="translate(-0.005 1.438) rotate(-49.703)" fill="#fff"/>
            </g>
          </g>
        </g>
        <g id="Group_46090" data-name="Group 46090" transform="translate(376.451 250.695)" opacity="0.72">
          <g id="Group_46089" data-name="Group 46089">
            <g id="Group_46088" data-name="Group 46088" clip-path="url(#clip-path-9)">
              <path id="Path_7201" data-name="Path 7201" d="M364.807,246.292l.914-1.075-12.446-10.565-.914,1.074Z" transform="translate(-352.361 -234.652)" fill="#fff"/>
            </g>
          </g>
        </g>
        <path id="Path_7202" data-name="Path 7202" d="M346.077,234.085h20.538v20.709H346.077Zm18.694,1.842H347.92v17.025h16.851Z" transform="translate(23.661 16.004)" fill="#bc1b1d"/>
        <rect id="Rectangle_6860" data-name="Rectangle 6860" width="18.694" height="18.867" transform="translate(336.723 251.011)" fill="#e1f1fc"/>
        <g id="Group_46093" data-name="Group 46093" transform="translate(336.115 250.293)" opacity="0.72">
          <g id="Group_46092" data-name="Group 46092">
            <g id="Group_46091" data-name="Group 46091" clip-path="url(#clip-path-4)">
              <rect id="Rectangle_6861" data-name="Rectangle 6861" width="1.88" height="23.314" transform="translate(-0.004 1.438) rotate(-49.703)" fill="#fff"/>
            </g>
          </g>
        </g>
        <g id="Group_46096" data-name="Group 46096" transform="translate(342.515 250.695)" opacity="0.72">
          <g id="Group_46095" data-name="Group 46095">
            <g id="Group_46094" data-name="Group 46094" clip-path="url(#clip-path-9)">
              <path id="Path_7203" data-name="Path 7203" d="M333.042,246.292l.914-1.075L321.51,234.652l-.915,1.074Z" transform="translate(-320.596 -234.652)" fill="#fff"/>
            </g>
          </g>
        </g>
        <path id="Path_7204" data-name="Path 7204" d="M314.312,234.085H334.85v20.709H314.312Zm18.694,1.842H316.155v17.025h16.851Z" transform="translate(21.489 16.004)" fill="#bc1b1d"/>
        <path id="Path_7205" data-name="Path 7205" d="M301.863,204.349l65.931.394,15.021,15.289H301.863Z" transform="translate(20.638 13.971)" fill="#bc1b1d"/>
        <rect id="Rectangle_6864" data-name="Rectangle 6864" width="80.952" height="9.637" transform="translate(322.501 234.005)" fill="#bc1b1d"/>
        <rect id="Rectangle_6865" data-name="Rectangle 6865" width="2.969" height="47.887" transform="translate(322.501 243.641)" fill="#bc1b1d"/>
        <rect id="Rectangle_6866" data-name="Rectangle 6866" width="65.931" height="52.335" transform="translate(322.501 166.379)" fill="#ed2225"/>
        <rect id="Rectangle_6867" data-name="Rectangle 6867" width="71.52" height="8.629" transform="translate(322.501 157.75)" fill="#bc1b1d"/>
        <g id="Group_46099" data-name="Group 46099" transform="translate(340.947 172.022)" opacity="0.32">
          <g id="Group_46098" data-name="Group 46098">
            <g id="Group_46097" data-name="Group 46097" clip-path="url(#clip-path)">
              <rect id="Rectangle_6868" data-name="Rectangle 6868" width="30.784" height="30.875" fill="#fff"/>
            </g>
          </g>
        </g>
        <rect id="Rectangle_6870" data-name="Rectangle 6870" width="18.694" height="18.867" transform="translate(346.911 177.744)" fill="#e1f1fc"/>
        <path id="Path_7206" data-name="Path 7206" d="M350.894,196.006H318.266V160.153h32.628Zm-30.784-1.842h28.941V161.994H320.11Z" transform="translate(21.759 10.949)" fill="#bc1b1d"/>
        <rect id="Rectangle_6871" data-name="Rectangle 6871" width="38.585" height="8.525" transform="translate(337.047 200.65)" fill="#bc1b1d"/>
        <rect id="Rectangle_6872" data-name="Rectangle 6872" width="38.585" height="4.049" transform="translate(337.047 209.175)" fill="#f74e50"/>
        <g id="Group_46102" data-name="Group 46102" transform="translate(347.224 177.028)" opacity="0.72">
          <g id="Group_46101" data-name="Group 46101">
            <g id="Group_46100" data-name="Group 46100" clip-path="url(#clip-path-4)">
              <rect id="Rectangle_6873" data-name="Rectangle 6873" width="23.313" height="1.88" transform="matrix(0.763, -0.647, 0.647, 0.763, -0.004, 15.083)" fill="#fff"/>
            </g>
          </g>
        </g>
        <g id="Group_46105" data-name="Group 46105" transform="translate(346.454 177.429)" opacity="0.72">
          <g id="Group_46104" data-name="Group 46104">
            <g id="Group_46103" data-name="Group 46103" clip-path="url(#clip-path-3)">
              <path id="Path_7207" data-name="Path 7207" d="M325.2,177.715l-.914-1.074,12.446-10.566.914,1.074Z" transform="translate(-324.283 -166.075)" fill="#fff"/>
            </g>
          </g>
        </g>
        <path id="Path_7208" data-name="Path 7208" d="M344.386,186.217H323.848V165.508h20.538Zm-18.694-1.842h16.851V167.349H325.692Z" transform="translate(22.141 11.315)" fill="#bc1b1d"/>
        <rect id="Rectangle_6876" data-name="Rectangle 6876" width="2.969" height="53.256" transform="translate(322.501 166.379)" fill="#bc1b1d"/>
        <rect id="Rectangle_6877" data-name="Rectangle 6877" width="186.008" height="152.531" transform="translate(136.493 138.998)" fill="#ed2225"/>
        <rect id="Rectangle_6878" data-name="Rectangle 6878" width="191.945" height="8.261" transform="translate(133.525 218.714)" fill="#bc1b1d"/>
        <rect id="Rectangle_6879" data-name="Rectangle 6879" width="191.945" height="8.261" transform="translate(133.525 130.737)" fill="#bc1b1d"/>
        <rect id="Rectangle_6880" data-name="Rectangle 6880" width="186.008" height="8.079" transform="translate(136.493 122.658)" fill="#bc1b1d"/>
        <path id="Path_7209" data-name="Path 7209" d="M264.169,92.892h-95.59a11.363,11.363,0,0,0-11.363,11.363V121.98H275.532V104.255a11.363,11.363,0,0,0-11.363-11.363" transform="translate(10.749 6.351)" fill="#bc1b1d"/>
      </g>
    </g>
    <text id="HOTEL" transform="translate(184.665 117.906)" fill="#fff" font-size="18" font-family="Montserrat-ExtraBold, Montserrat" font-weight="800"><tspan x="0" y="0" letter-spacing="0.2em">H</tspan><tspan y="0" letter-spacing="0.19em">O</tspan><tspan y="0" letter-spacing="0.199em">T</tspan><tspan y="0" letter-spacing="0.2em">E</tspan><tspan y="0">L</tspan></text>
    <g id="Group_46154" data-name="Group 46154" transform="translate(0 155.908)">
      <g id="Group_46157" data-name="Group 46157">
        <g id="Group_46110" data-name="Group 46110" transform="translate(152.653 77.175)" opacity="0.32">
          <g id="Group_46109" data-name="Group 46109">
            <g id="Group_46108" data-name="Group 46108" clip-path="url(#clip-path-15)">
              <rect id="Rectangle_6882" data-name="Rectangle 6882" width="30.784" height="30.875" transform="translate(0.001)" fill="#fff"/>
            </g>
          </g>
        </g>
        <rect id="Rectangle_6884" data-name="Rectangle 6884" width="18.694" height="18.867" transform="translate(158.617 82.897)" fill="#e1f1fc"/>
        <path id="Path_7210" data-name="Path 7210" d="M174.65,253.159H142.022V217.306H174.65Zm-30.785-1.842h28.941V219.147H143.865Z" transform="translate(9.71 -141.051)" fill="#bc1b1d"/>
        <rect id="Rectangle_6885" data-name="Rectangle 6885" width="38.585" height="8.525" transform="translate(148.753 105.803)" fill="#bc1b1d"/>
        <rect id="Rectangle_6886" data-name="Rectangle 6886" width="38.585" height="4.049" transform="translate(148.753 114.327)" fill="#f74e50"/>
        <g id="Group_46113" data-name="Group 46113" transform="translate(158.93 82.18)" opacity="0.72">
          <g id="Group_46112" data-name="Group 46112">
            <g id="Group_46111" data-name="Group 46111" clip-path="url(#clip-path-4)">
              <rect id="Rectangle_6887" data-name="Rectangle 6887" width="23.314" height="1.88" transform="translate(-0.004 15.083) rotate(-40.297)" fill="#fff"/>
            </g>
          </g>
        </g>
        <g id="Group_46116" data-name="Group 46116" transform="translate(158.159 82.582)" opacity="0.72">
          <g id="Group_46115" data-name="Group 46115">
            <g id="Group_46114" data-name="Group 46114" clip-path="url(#clip-path-9)">
              <path id="Path_7211" data-name="Path 7211" d="M148.953,234.868l-.915-1.074,12.447-10.566.915,1.074Z" transform="translate(-148.038 -223.228)" fill="#fff"/>
            </g>
          </g>
        </g>
        <path id="Path_7212" data-name="Path 7212" d="M168.142,243.37H147.6V222.661h20.538Zm-18.694-1.842H166.3V224.5H149.448Z" transform="translate(10.091 -140.685)" fill="#bc1b1d"/>
        <g id="Group_46119" data-name="Group 46119" transform="translate(274.094 0.921)" opacity="0.32">
          <g id="Group_46118" data-name="Group 46118">
            <g id="Group_46117" data-name="Group 46117" clip-path="url(#clip-path-18)">
              <rect id="Rectangle_6890" data-name="Rectangle 6890" width="30.784" height="41.619" transform="translate(0.001 -0.001)" fill="#fff"/>
            </g>
          </g>
        </g>
        <rect id="Rectangle_6892" data-name="Rectangle 6892" width="18.694" height="29.612" transform="translate(280.059 6.642)" fill="#e1f1fc"/>
        <path id="Path_7213" data-name="Path 7213" d="M288.32,192.529H255.692v-46.6H288.32Zm-30.785-1.842h28.941V147.773H257.535Z" transform="translate(17.481 -145.931)" fill="#bc1b1d"/>
        <rect id="Rectangle_6893" data-name="Rectangle 6893" width="38.585" height="8.525" transform="translate(270.195 40.292)" fill="#bc1b1d"/>
        <rect id="Rectangle_6894" data-name="Rectangle 6894" width="38.585" height="4.049" transform="translate(270.195 48.817)" fill="#f74e50"/>
        <g id="Group_46122" data-name="Group 46122" transform="translate(280.372 5.925)" opacity="0.72">
          <g id="Group_46121" data-name="Group 46121">
            <g id="Group_46120" data-name="Group 46120" clip-path="url(#clip-path-4)">
              <rect id="Rectangle_6895" data-name="Rectangle 6895" width="23.314" height="1.88" transform="matrix(0.763, -0.647, 0.647, 0.763, -0.004, 15.083)" fill="#fff"/>
            </g>
          </g>
        </g>
        <g id="Group_46125" data-name="Group 46125" transform="translate(279.601 6.327)" opacity="0.72">
          <g id="Group_46124" data-name="Group 46124">
            <g id="Group_46123" data-name="Group 46123" clip-path="url(#clip-path-9)">
              <path id="Path_7214" data-name="Path 7214" d="M262.623,163.493l-.915-1.074,12.446-10.566.915,1.075Z" transform="translate(-261.708 -151.853)" fill="#fff"/>
            </g>
          </g>
        </g>
        <path id="Path_7215" data-name="Path 7215" d="M281.812,182.74H261.274V151.286h20.538ZM263.118,180.9h16.851v-27.77H263.118Z" transform="translate(17.863 -145.565)" fill="#bc1b1d"/>
        <rect id="Rectangle_6898" data-name="Rectangle 6898" width="18.694" height="1.842" transform="translate(280.059 20.528)" fill="#bc1b1d"/>
        <g id="Group_46128" data-name="Group 46128" transform="translate(212.629 0.921)" opacity="0.32">
          <g id="Group_46127" data-name="Group 46127">
            <g id="Group_46126" data-name="Group 46126" clip-path="url(#clip-path-18)">
              <rect id="Rectangle_6899" data-name="Rectangle 6899" width="30.784" height="41.619" transform="translate(0.001 -0.001)" fill="#fff"/>
            </g>
          </g>
        </g>
        <rect id="Rectangle_6901" data-name="Rectangle 6901" width="18.694" height="29.612" transform="translate(218.593 6.642)" fill="#e1f1fc"/>
        <path id="Path_7216" data-name="Path 7216" d="M230.788,192.529H198.16v-46.6h32.628ZM200,190.687h28.941V147.773H200Z" transform="translate(13.548 -145.931)" fill="#bc1b1d"/>
        <rect id="Rectangle_6902" data-name="Rectangle 6902" width="38.585" height="8.525" transform="translate(208.729 40.292)" fill="#bc1b1d"/>
        <rect id="Rectangle_6903" data-name="Rectangle 6903" width="38.585" height="4.049" transform="translate(208.729 48.817)" fill="#f74e50"/>
        <g id="Group_46131" data-name="Group 46131" transform="translate(218.907 5.925)" opacity="0.72">
          <g id="Group_46130" data-name="Group 46130">
            <g id="Group_46129" data-name="Group 46129" clip-path="url(#clip-path-4)">
              <rect id="Rectangle_6904" data-name="Rectangle 6904" width="23.314" height="1.88" transform="matrix(0.763, -0.647, 0.647, 0.763, -0.004, 15.083)" fill="#fff"/>
            </g>
          </g>
        </g>
        <g id="Group_46134" data-name="Group 46134" transform="translate(218.135 6.327)" opacity="0.72">
          <g id="Group_46133" data-name="Group 46133">
            <g id="Group_46132" data-name="Group 46132" clip-path="url(#clip-path-9)">
              <path id="Path_7217" data-name="Path 7217" d="M205.091,163.493l-.915-1.074,12.446-10.566.915,1.075Z" transform="translate(-204.176 -151.853)" fill="#fff"/>
            </g>
          </g>
        </g>
        <path id="Path_7218" data-name="Path 7218" d="M224.28,182.74H203.742V151.286H224.28ZM205.586,180.9h16.851v-27.77H205.586Z" transform="translate(13.929 -145.565)" fill="#bc1b1d"/>
        <rect id="Rectangle_6907" data-name="Rectangle 6907" width="18.694" height="1.842" transform="translate(218.593 20.528)" fill="#3547ab"/>
        <g id="Group_46137" data-name="Group 46137" transform="translate(152.653 0.921)" opacity="0.32">
          <g id="Group_46136" data-name="Group 46136">
            <g id="Group_46135" data-name="Group 46135" clip-path="url(#clip-path-18)">
              <rect id="Rectangle_6908" data-name="Rectangle 6908" width="30.784" height="41.619" transform="translate(0.001 -0.001)" fill="#fff"/>
            </g>
          </g>
        </g>
        <rect id="Rectangle_6910" data-name="Rectangle 6910" width="18.694" height="29.612" transform="translate(158.617 6.642)" fill="#e1f1fc"/>
        <path id="Path_7219" data-name="Path 7219" d="M174.65,192.529H142.022v-46.6H174.65Zm-30.785-1.842h28.941V147.773H143.865Z" transform="translate(9.71 -145.931)" fill="#bc1b1d"/>
        <rect id="Rectangle_6911" data-name="Rectangle 6911" width="38.585" height="8.525" transform="translate(148.753 40.292)" fill="#bc1b1d"/>
        <rect id="Rectangle_6912" data-name="Rectangle 6912" width="38.585" height="4.049" transform="translate(148.753 48.817)" fill="#f74e50"/>
        <g id="Group_46140" data-name="Group 46140" transform="translate(158.93 5.925)" opacity="0.72">
          <g id="Group_46139" data-name="Group 46139">
            <g id="Group_46138" data-name="Group 46138" clip-path="url(#clip-path-4)">
              <rect id="Rectangle_6913" data-name="Rectangle 6913" width="23.314" height="1.88" transform="matrix(0.763, -0.647, 0.647, 0.763, -0.004, 15.083)" fill="#fff"/>
            </g>
          </g>
        </g>
        <g id="Group_46143" data-name="Group 46143" transform="translate(158.159 6.327)" opacity="0.72">
          <g id="Group_46142" data-name="Group 46142">
            <g id="Group_46141" data-name="Group 46141" clip-path="url(#clip-path-9)">
              <path id="Path_7220" data-name="Path 7220" d="M148.953,163.493l-.915-1.074,12.446-10.566.915,1.075Z" transform="translate(-148.038 -151.853)" fill="#fff"/>
            </g>
          </g>
        </g>
        <path id="Path_7221" data-name="Path 7221" d="M168.142,182.74H147.6V151.286h20.538ZM149.448,180.9H166.3v-27.77H149.448Z" transform="translate(10.091 -145.565)" fill="#bc1b1d"/>
        <rect id="Rectangle_6916" data-name="Rectangle 6916" width="18.694" height="1.842" transform="translate(158.617 20.528)" fill="#bc1b1d"/>
        <g id="Group_46146" data-name="Group 46146" transform="translate(274.014 77.175)" opacity="0.32">
          <g id="Group_46145" data-name="Group 46145">
            <g id="Group_46144" data-name="Group 46144" clip-path="url(#clip-path)">
              <rect id="Rectangle_6917" data-name="Rectangle 6917" width="30.784" height="30.875" fill="#fff"/>
            </g>
          </g>
        </g>
        <rect id="Rectangle_6919" data-name="Rectangle 6919" width="18.694" height="18.867" transform="translate(279.978 82.897)" fill="#e1f1fc"/>
        <path id="Path_7222" data-name="Path 7222" d="M288.244,253.159H255.616V217.306h32.628Zm-30.784-1.842H286.4V219.147H257.46Z" transform="translate(17.476 -141.051)" fill="#bc1b1d"/>
        <rect id="Rectangle_6920" data-name="Rectangle 6920" width="38.585" height="8.525" transform="translate(270.113 105.803)" fill="#bc1b1d"/>
        <rect id="Rectangle_6921" data-name="Rectangle 6921" width="38.585" height="4.049" transform="translate(270.113 114.327)" fill="#f74e50"/>
        <g id="Group_46149" data-name="Group 46149" transform="translate(280.292 82.18)" opacity="0.72">
          <g id="Group_46148" data-name="Group 46148">
            <g id="Group_46147" data-name="Group 46147" clip-path="url(#clip-path-2)">
              <rect id="Rectangle_6922" data-name="Rectangle 6922" width="23.314" height="1.88" transform="translate(-0.005 15.083) rotate(-40.297)" fill="#fff"/>
            </g>
          </g>
        </g>
        <g id="Group_46152" data-name="Group 46152" transform="translate(279.52 82.582)" opacity="0.72">
          <g id="Group_46151" data-name="Group 46151">
            <g id="Group_46150" data-name="Group 46150" clip-path="url(#clip-path-3)">
              <path id="Path_7223" data-name="Path 7223" d="M262.547,234.868l-.915-1.074,12.447-10.566.914,1.074Z" transform="translate(-261.633 -223.228)" fill="#fff"/>
            </g>
          </g>
        </g>
        <path id="Path_7224" data-name="Path 7224" d="M281.736,243.37H261.2V222.661h20.538Zm-18.694-1.842h16.851V224.5H263.042Z" transform="translate(17.858 -140.685)" fill="#bc1b1d"/>
        <rect id="Rectangle_6925" data-name="Rectangle 6925" width="50.042" height="47.219" transform="translate(203.781 88.402)" fill="#351c3d"/>
        <line id="Line_55" data-name="Line 55" y1="45.59" transform="translate(229.497 90.03)" fill="none" stroke="#221327" stroke-width="1"/>
        <path id="Path_7225" data-name="Path 7225" d="M211.215,249.863a1.919,1.919,0,1,1-1.919-1.919,1.919,1.919,0,0,1,1.919,1.919" transform="translate(14.178 -138.957)" fill="#221327"/>
        <path id="Path_7226" data-name="Path 7226" d="M222.494,249.863a1.919,1.919,0,1,1-1.919-1.919,1.919,1.919,0,0,1,1.919,1.919" transform="translate(14.949 -138.957)" fill="#221327"/>
        <path id="Path_7227" data-name="Path 7227" d="M241.382,204.718H190.708l-4.636,20.691h59.945Z" transform="translate(12.721 -141.912)" fill="#bc1b1d"/>
        <path id="Path_7228" data-name="Path 7228" d="M237.217,235.613H194.872a8.8,8.8,0,0,1-8.8-8.8v-2.728h59.945v2.728a8.8,8.8,0,0,1-8.8,8.8" transform="translate(12.721 -140.588)" fill="#f74e50"/>
        <path id="Path_7229" data-name="Path 7229" d="M195.67,225.832l.759,2.333h2.453l-1.985,1.442.759,2.333L195.67,230.5l-1.985,1.442.759-2.333-1.985-1.442h2.453Z" transform="translate(13.158 -140.468)" fill="#f3ede9"/>
        <path id="Path_7230" data-name="Path 7230" d="M205,225.832l.759,2.333h2.453l-1.985,1.442.759,2.333L205,230.5l-1.985,1.442.759-2.333-1.985-1.442h2.454Z" transform="translate(13.796 -140.468)" fill="#f3ede9"/>
        <path id="Path_7231" data-name="Path 7231" d="M214.332,225.832l.759,2.333h2.453l-1.985,1.442.759,2.333-1.985-1.442-1.985,1.442.759-2.333-1.985-1.442h2.454Z" transform="translate(14.434 -140.468)" fill="#f3ede9"/>
        <path id="Path_7232" data-name="Path 7232" d="M223.664,225.832l.759,2.333h2.453l-1.985,1.442.759,2.333-1.985-1.442-1.985,1.442.759-2.333-1.985-1.442H222.9Z" transform="translate(15.072 -140.468)" fill="#f3ede9"/>
        <path id="Path_7233" data-name="Path 7233" d="M232.995,225.832l.759,2.333h2.453l-1.985,1.442.759,2.333-1.985-1.442-1.985,1.442.759-2.333-1.985-1.442h2.454Z" transform="translate(15.71 -140.468)" fill="#f3ede9"/>
        <line id="Line_56" data-name="Line 56" x2="462.127" transform="translate(0 135.62)" fill="none" stroke="#384aae" stroke-width="1"/>
        <path id="Path_7234" data-name="Path 7234" d="M221.03,163.685H187.063a5.2,5.2,0,0,0-5.194,5.194v43.1a1.763,1.763,0,0,0,3.106,1.142l4.019-4.724H221.03a5.193,5.193,0,0,0,5.193-5.193v-34.32a5.194,5.194,0,0,0-5.193-5.194" transform="translate(12.434 -144.717)" fill="#f7a3a4"/>
        <path id="Path_7235" data-name="Path 7235" d="M198.988,195.139c4.482.077,9.019.137,13.141-.147,1.3-.091,2.432-2.163.847-2.818a2.934,2.934,0,0,0,1.635-1.419,1.4,1.4,0,0,0-.794-1.851c1.554.385,2.168-2.082.955-2.878a3.636,3.636,0,0,0,1.311-2.1,2.1,2.1,0,0,0-.945-2.174,3.405,3.405,0,0,0-1.616-.279l-5.591-.042c.5-2.917.657-6.1-.826-8.657-.447-.771-1.646-1.7-2.6-1.1-.892.558-.644,1.941-.6,2.814a9.847,9.847,0,0,1-5.083,8.986s.213,7.729.166,11.671" transform="translate(13.593 -144.184)" fill="#fafafa"/>
        <rect id="Rectangle_6926" data-name="Rectangle 6926" width="6.773" height="11.66" transform="translate(204.182 39.284)" fill="#fafafa"/>
        <path id="Path_7238" data-name="Path 7238" d="M161.149,234.184a9.106,9.106,0,0,0-2.5,3.848" transform="translate(10.846 -139.897)" fill="none" stroke="#ded078" stroke-width="1"/>
      </g>
    </g>
  </g>
</svg>
