<svg id="Group_45785" data-name="Group 45785" xmlns="http://www.w3.org/2000/svg" xmlns:xlink="http://www.w3.org/1999/xlink" width="380.805" height="316.062" viewBox="0 0 380.805 316.062">
  <defs>
    <clipPath id="clip-path">
      <rect id="Rectangle_6769" data-name="Rectangle 6769" width="380.805" height="316.062" fill="none"/>
    </clipPath>
    <clipPath id="clip-path-3">
      <rect id="Rectangle_6744" data-name="Rectangle 6744" width="340.617" height="187.131" transform="translate(29.973 76.401)" fill="none"/>
    </clipPath>
    <clipPath id="clip-path-4">
      <rect id="Rectangle_6746" data-name="Rectangle 6746" width="130.797" height="171.014" transform="translate(36.543 123.896)" fill="none"/>
    </clipPath>
  </defs>
  <g id="Group_45784" data-name="Group 45784" clip-path="url(#clip-path)">
    <g id="Group_45783" data-name="Group 45783">
      <g id="Group_45782" data-name="Group 45782" clip-path="url(#clip-path)">
        <path id="Path_6752" data-name="Path 6752" d="M27.9,151.3H22.483A21.932,21.932,0,0,0,.551,173.237V293.579A21.931,21.931,0,0,0,22.483,315.51h74.36a21.931,21.931,0,0,0,21.932-21.931" fill="none" stroke="#263238" stroke-linecap="round" stroke-linejoin="round" stroke-width="1.103" stroke-dasharray="4.412 4.412"/>
        <path id="Path_6753" data-name="Path 6753" d="M112.678,37.755V13.984A13.432,13.432,0,0,1,126.11.552h96.7a13.431,13.431,0,0,1,13.432,13.432" fill="none" stroke="#263238" stroke-linecap="round" stroke-linejoin="round" stroke-width="1.103" stroke-dasharray="4.412 4.412"/>
        <path id="Path_6754" data-name="Path 6754" d="M380.253,69.65V249.71A22.2,22.2,0,0,1,358.059,271.9H41.368A22.2,22.2,0,0,1,19.173,249.71V69.65c0-.529.022-1.048.066-1.566a22.193,22.193,0,0,1,22.129-20.64H358.059a22.192,22.192,0,0,1,22.128,20.64c.044.518.066,1.037.066,1.566" fill="#fff"/>
        <path id="Path_6755" data-name="Path 6755" d="M380.253,69.65V249.71A22.2,22.2,0,0,1,358.059,271.9H41.368A22.2,22.2,0,0,1,19.173,249.71V69.65c0-.529.022-1.048.066-1.566a22.193,22.193,0,0,1,22.129-20.64H358.059a22.192,22.192,0,0,1,22.128,20.64C380.231,68.6,380.253,69.121,380.253,69.65Z" fill="none" stroke="#263238" stroke-linecap="round" stroke-linejoin="round" stroke-width="1.103"/>
        <path id="Path_6756" data-name="Path 6756" d="M349.784,263.533H50.773a20.8,20.8,0,0,1-20.8-20.8V76.4H370.584V242.733a20.8,20.8,0,0,1-20.8,20.8" fill="#263238"/>
        <g id="Group_45778" data-name="Group 45778" opacity="0.2">
          <g id="Group_45777" data-name="Group 45777">
            <g id="Group_45776" data-name="Group 45776" clip-path="url(#clip-path-3)">
              <path id="Path_6757" data-name="Path 6757" d="M370.59,76.4V242.738a20.686,20.686,0,0,1-20.569,20.794H50.542a20.687,20.687,0,0,1-20.569-20.794V76.4Z" fill="#fff"/>
            </g>
          </g>
        </g>
        <path id="Path_6758" data-name="Path 6758" d="M380.187,68.084H19.24A22.191,22.191,0,0,1,41.368,47.445H358.059a22.191,22.191,0,0,1,22.128,20.639" fill="#ed2225"/>
        <path id="Path_6759" data-name="Path 6759" d="M380.187,68.084H19.24A22.191,22.191,0,0,1,41.368,47.445H358.059A22.191,22.191,0,0,1,380.187,68.084Z" fill="none" stroke="#263238" stroke-width="1.103"/>
        <path id="Path_6760" data-name="Path 6760" d="M63.6,57.764a3.932,3.932,0,1,1-3.931-3.931A3.931,3.931,0,0,1,63.6,57.764" fill="#fff"/>
        <path id="Path_6761" data-name="Path 6761" d="M80.217,57.764a3.932,3.932,0,1,1-3.931-3.931,3.931,3.931,0,0,1,3.931,3.931" fill="#fff"/>
        <path id="Path_6762" data-name="Path 6762" d="M96.839,57.764a3.931,3.931,0,1,1-3.931-3.931,3.931,3.931,0,0,1,3.931,3.931" fill="#fff"/>
        <path id="Path_6763" data-name="Path 6763" d="M370.584,76.408V242.734a20.806,20.806,0,0,1-20.805,20.805H50.772a20.8,20.8,0,0,1-20.4-16.767l-.011-.011v-.044a20.642,20.642,0,0,1-.386-3.983V76.408Z" fill="none" stroke="#263238" stroke-width="1.103"/>
        <path id="Path_6764" data-name="Path 6764" d="M370.261,102.133a21.142,21.142,0,0,0-4.622-1.908l-1.864-8.35h-7.942l-1.853,8.35a20.49,20.49,0,0,0-4.633,1.908l-7.171-4.589-5.614,5.615,4.511,7.171a20.4,20.4,0,0,0-1.908,4.633l-8.351,1.853v7.942l8.351,1.864a20.266,20.266,0,0,0,1.908,4.667l-4.589,7.214,5.615,5.615,7.215-4.589a20.523,20.523,0,0,0,4.633,1.919l1.853,8.34h7.942l1.864-8.34a21.176,21.176,0,0,0,4.622-1.919l.364.231V101.924ZM359.826,131.09a10.259,10.259,0,1,1,10.259-10.259,10.254,10.254,0,0,1-10.259,10.259" fill="#263238"/>
        <path id="Path_6765" data-name="Path 6765" d="M227.164,110.179V93.433l-17.606-3.9a45.515,45.515,0,0,0-4.026-9.773l2.129-3.353h-83.1l2.052,3.265a43.339,43.339,0,0,0-4.016,9.762L105,93.345V110.09l17.6,3.927a43.932,43.932,0,0,0,4.016,9.84l-9.675,15.212L128.789,150.9l15.2-9.674a44.72,44.72,0,0,0,9.773,4.048l3.9,17.584h16.745l3.938-17.584a45.035,45.035,0,0,0,9.741-4.048L203.3,150.9l11.836-11.836-9.608-15.212a45.906,45.906,0,0,0,4.026-9.751Zm-61,13.259a21.632,21.632,0,1,1,21.632-21.632,21.632,21.632,0,0,1-21.632,21.632" fill="#263238"/>
        <path id="Path_6766" data-name="Path 6766" d="M116.1,225.161l.706-13.281L103.038,208a37.285,37.285,0,0,0-2.824-7.9l8.317-11.682-8.913-9.9-12.465,7.049a36.889,36.889,0,0,0-7.59-3.629l-2.382-14.12L63.9,167.116l-3.838,13.811a34.71,34.71,0,0,0-7.9,2.8l-11.67-8.318-9.906,8.913L37.645,196.8a34.489,34.489,0,0,0-3.64,7.578l-4.026.662v17.991l2.923.828a34.8,34.8,0,0,0,2.824,7.92l-5.747,8.042.386,6.894v.044l.011.011,5.924,6.575L48.787,246.3A34.57,34.57,0,0,0,56.4,249.97l2.273,13.557v.012l.11.562,13.281.706.353-1.268v-.012L75.9,251a35.587,35.587,0,0,0,7.942-2.8L95.492,256.5l9.906-8.9L98.36,235.111a34.4,34.4,0,0,0,3.6-7.567ZM80.821,204.412a17.2,17.2,0,1,0-1.28,24.279,17.2,17.2,0,0,0,1.28-24.279" fill="#263238"/>
        <path id="Path_6767" data-name="Path 6767" d="M222.314,205.315a26.943,26.943,0,0,0,.806-6.29L232.669,194l-2.638-9.687-10.778.5a26.85,26.85,0,0,0-3.873-5l3.194-10.31-8.7-4.986-7.281,7.945a28.236,28.236,0,0,0-6.269-.8l-5.041-9.556-9.674,2.633.51,10.791A27.429,27.429,0,0,0,177.1,179.4l-10.314-3.184-4.992,8.69,7.987,7.262a26.145,26.145,0,0,0-.789,6.273l-9.566,5.037,2.638,9.688,10.792-.511a25.716,25.716,0,0,0,3.858,5.01l-3.209,10.258,8.705,4.986,7.242-7.877a26.434,26.434,0,0,0,6.284.792l5.028,9.563,9.672-2.632-.424-9.219-.071-1.58a26.55,26.55,0,0,0,5.062-3.874l10.308,3.205,4.259-7.444.726-1.26ZM199.441,211.2a12.958,12.958,0,1,1,9.1-15.908,12.958,12.958,0,0,1-9.1,15.908" fill="#263238"/>
        <path id="Path_6768" data-name="Path 6768" d="M333.029,222.353l2.206-13.293-13.458-5.416a35.688,35.688,0,0,0-1.93-8.295l9.685-10.789L321.689,173.6l-13.359,5.669a35.485,35.485,0,0,0-7.214-4.478l-.783-14.495-13.3-2.2-5.45,13.4a37.131,37.131,0,0,0-8.262,1.941L262.5,163.756,251.542,171.6l5.682,13.347a36.331,36.331,0,0,0-4.049,6.288c-.154.309-.309.618-.452.927l-14.484.805-2.206,13.281,2.184.883,11.274,4.545a35.023,35.023,0,0,0,1.93,8.262l-9.685,10.821,7.843,10.954,13.359-5.692a34.658,34.658,0,0,0,7.2,4.512l.75,14.429,13.292,2.2,5.439-13.3a34.994,34.994,0,0,0,8.284-1.941l10.8,9.7,10.964-7.854-5.681-13.359a34.82,34.82,0,0,0,4.556-7.247Zm-37.3-.6a17.409,17.409,0,1,1,4.015-24.29,17.41,17.41,0,0,1-4.015,24.29" fill="#263238"/>
        <path id="Path_6769" data-name="Path 6769" d="M152.789,294.91H48.212A13.11,13.11,0,0,1,35.1,281.8V137.006a13.111,13.111,0,0,1,13.11-13.11H152.789a13.111,13.111,0,0,1,13.11,13.11V281.8a13.11,13.11,0,0,1-13.11,13.11" fill="#ed2225"/>
        <rect id="Rectangle_6745" data-name="Rectangle 6745" width="130.797" height="171.014" rx="13.11" transform="translate(35.102 123.896)" fill="none" stroke="#263238" stroke-width="1.103"/>
        <g id="Group_45781" data-name="Group 45781" opacity="0.2">
          <g id="Group_45780" data-name="Group 45780">
            <g id="Group_45779" data-name="Group 45779" clip-path="url(#clip-path-4)">
              <path id="Path_6770" data-name="Path 6770" d="M154.23,294.91H49.653a13.109,13.109,0,0,1-13.11-13.11V137.006a13.11,13.11,0,0,1,13.11-13.11H154.23a13.111,13.111,0,0,1,13.11,13.11V281.8a13.11,13.11,0,0,1-13.11,13.11"/>
            </g>
          </g>
        </g>
        <path id="Path_6771" data-name="Path 6771" d="M178.075,149.923V294.717a13.111,13.111,0,0,1-13.116,13.116H60.385a13.109,13.109,0,0,1-13.1-13.116V149.923a13.107,13.107,0,0,1,13.1-13.105H164.959a13.109,13.109,0,0,1,13.116,13.105" fill="#fff"/>
        <path id="Path_6772" data-name="Path 6772" d="M178.075,149.923V294.717a13.111,13.111,0,0,1-13.116,13.116H60.385a13.109,13.109,0,0,1-13.1-13.116V149.923a13.107,13.107,0,0,1,13.1-13.105H164.959A13.109,13.109,0,0,1,178.075,149.923Z" fill="none" stroke="#263238" stroke-linecap="round" stroke-linejoin="round" stroke-width="1.103"/>
        <path id="Path_6773" data-name="Path 6773" d="M178.075,149.923v7.755H47.28v-7.755a13.107,13.107,0,0,1,13.1-13.105H164.959a13.109,13.109,0,0,1,13.116,13.105" fill="#ed2225"/>
        <path id="Path_6774" data-name="Path 6774" d="M178.075,149.923v7.755H47.28v-7.755a13.107,13.107,0,0,1,13.1-13.105H164.959A13.109,13.109,0,0,1,178.075,149.923Z" fill="none" stroke="#263238" stroke-width="1.103"/>
        <rect id="Rectangle_6747" data-name="Rectangle 6747" width="32.178" height="5.397" transform="translate(59.58 166.66)" fill="#ed2225"/>
        <rect id="Rectangle_6748" data-name="Rectangle 6748" width="32.178" height="5.397" transform="translate(59.58 166.66)" fill="none" stroke="#263238" stroke-width="1.103"/>
        <rect id="Rectangle_6749" data-name="Rectangle 6749" width="32.178" height="5.397" transform="translate(59.58 215.048)" fill="#ed2225"/>
        <rect id="Rectangle_6750" data-name="Rectangle 6750" width="32.178" height="5.397" transform="translate(59.58 215.048)" fill="none" stroke="#263238" stroke-width="1.103"/>
        <rect id="Rectangle_6751" data-name="Rectangle 6751" width="32.178" height="5.397" transform="translate(59.58 258.928)" fill="#ed2225"/>
        <rect id="Rectangle_6752" data-name="Rectangle 6752" width="32.178" height="5.397" transform="translate(59.58 258.928)" fill="none" stroke="#263238" stroke-width="1.103"/>
        <rect id="Rectangle_6753" data-name="Rectangle 6753" width="91.392" height="3.959" transform="translate(59.58 180.022)" fill="#263238"/>
        <rect id="Rectangle_6754" data-name="Rectangle 6754" width="74.912" height="3.857" transform="translate(59.58 187.6)" fill="#263238"/>
        <rect id="Rectangle_6755" data-name="Rectangle 6755" width="84.723" height="3.858" transform="translate(59.58 195.047)" fill="#263238"/>
        <rect id="Rectangle_6756" data-name="Rectangle 6756" width="84.723" height="3.857" transform="translate(59.58 202.49)" fill="#263238"/>
        <rect id="Rectangle_6757" data-name="Rectangle 6757" width="91.392" height="3.959" transform="translate(59.58 223.902)" fill="#263238"/>
        <rect id="Rectangle_6758" data-name="Rectangle 6758" width="74.912" height="3.857" transform="translate(59.58 231.479)" fill="#263238"/>
        <rect id="Rectangle_6759" data-name="Rectangle 6759" width="84.723" height="3.858" transform="translate(59.58 238.927)" fill="#263238"/>
        <rect id="Rectangle_6760" data-name="Rectangle 6760" width="91.392" height="3.959" transform="translate(59.58 272.088)" fill="#263238"/>
        <rect id="Rectangle_6761" data-name="Rectangle 6761" width="74.912" height="3.858" transform="translate(59.58 279.665)" fill="#263238"/>
        <rect id="Rectangle_6762" data-name="Rectangle 6762" width="84.723" height="3.858" transform="translate(59.58 287.113)" fill="#263238"/>
        <path id="Path_6775" data-name="Path 6775" d="M325.478,36.42V94.94a15.626,15.626,0,0,1-15.631,15.631H175.058A15.633,15.633,0,0,1,159.427,94.94V36.42a15.642,15.642,0,0,1,15.631-15.642H309.847A15.635,15.635,0,0,1,325.478,36.42" fill="#fff"/>
        <path id="Path_6776" data-name="Path 6776" d="M325.478,36.42V94.94a15.626,15.626,0,0,1-15.631,15.631H175.058A15.633,15.633,0,0,1,159.427,94.94V36.42a15.642,15.642,0,0,1,15.631-15.642H309.847A15.635,15.635,0,0,1,325.478,36.42Z" fill="none" stroke="#222221" stroke-width="1.103"/>
        <path id="Path_6777" data-name="Path 6777" d="M325.478,36.42v1.335H159.427V36.42a15.642,15.642,0,0,1,15.631-15.642H309.847A15.635,15.635,0,0,1,325.478,36.42" fill="#ed2225"/>
        <path id="Path_6778" data-name="Path 6778" d="M325.478,36.42v1.335H159.427V36.42a15.642,15.642,0,0,1,15.631-15.642H309.847A15.635,15.635,0,0,1,325.478,36.42Z" fill="none" stroke="#263238" stroke-width="1.103"/>
        <path id="Path_6779" data-name="Path 6779" d="M183.822,32.062a2.394,2.394,0,1,1,0-3.386,2.394,2.394,0,0,1,0,3.386" fill="#263238"/>
        <path id="Path_6780" data-name="Path 6780" d="M194.942,32.062a2.394,2.394,0,1,1,0-3.386,2.394,2.394,0,0,1,0,3.386" fill="#263238"/>
        <path id="Path_6781" data-name="Path 6781" d="M206.062,32.062a2.394,2.394,0,1,1,0-3.386,2.394,2.394,0,0,1,0,3.386" fill="#263238"/>
        <rect id="Rectangle_6763" data-name="Rectangle 6763" width="54.278" height="46.918" transform="translate(170.016 48.516)" fill="none" stroke="#263238" stroke-linecap="round" stroke-linejoin="round" stroke-width="1.103" stroke-dasharray="4.412 4.412"/>
        <rect id="Rectangle_6764" data-name="Rectangle 6764" width="62.467" height="3.295" transform="translate(232.669 48.516)" fill="#263238"/>
        <rect id="Rectangle_6765" data-name="Rectangle 6765" width="47.916" height="3.295" transform="translate(232.669 55.349)" fill="#263238"/>
        <rect id="Rectangle_6766" data-name="Rectangle 6766" width="71.353" height="3.334" transform="translate(232.669 62.143)" fill="#263238"/>
        <rect id="Rectangle_6767" data-name="Rectangle 6767" width="60.758" height="3.334" transform="translate(232.669 68.781)" fill="#263238"/>
      </g>
    </g>
  </g>
</svg>
