<svg xmlns="http://www.w3.org/2000/svg" xmlns:xlink="http://www.w3.org/1999/xlink" width="424" height="274.475" viewBox="0 0 424 274.475">
  <defs>
    <clipPath id="clip-path">
      <rect id="Rectangle_6446" data-name="Rectangle 6446" width="424" height="274.475" fill="none"/>
    </clipPath>
    <clipPath id="clip-path-3">
      <path id="Path_2888" data-name="Path 2888" d="M147.3,35.241c-12.938,4.822-32.4,21.31-47.841,35.919a4.178,4.178,0,0,0,2.954,7.211c20.689-.392,55.9-.666,116.352-.666,43.655,0,83.747.159,95.775.211A4.134,4.134,0,0,0,318.6,74.77c1.745-7.326,2.8-21.918,2.626-37.326a4.164,4.164,0,0,0-2.9-3.938c-17.846-5.537-40.85-8.34-68.533-8.34-49.2,0-97.132,9.034-102.5,10.076" transform="translate(-98.141 -25.165)" fill="none"/>
    </clipPath>
    <clipPath id="clip-path-4">
      <rect id="Rectangle_6431" data-name="Rectangle 6431" width="139.867" height="122.999" fill="none"/>
    </clipPath>
    <clipPath id="clip-path-5">
      <path id="Path_2889" data-name="Path 2889" d="M372.794,28.361c-7.781,2.018-4.322,22.478-4.322,22.478s5.764,34.005,12.968,39.481,23.631-4.9,23.631-4.9A165.632,165.632,0,0,0,380,28.649c-.4-.564-1.551-.738-2.82-.738a27.416,27.416,0,0,0-4.385.45" transform="translate(-367.706 -27.911)" fill="none"/>
    </clipPath>
    <clipPath id="clip-path-6">
      <rect id="Rectangle_6434" data-name="Rectangle 6434" width="50.006" height="69.123" fill="none"/>
    </clipPath>
    <clipPath id="clip-path-7">
      <path id="Path_2890" data-name="Path 2890" d="M389.894,36.537c8.837,12.68,18.252,45.916,19.6,47.069s14.025-3.65,14.025-3.65c-6.916-32.085-32.66-46.3-32.66-46.3a3.775,3.775,0,0,0-.658-.065c-2.266,0-.3,2.948-.3,2.948" transform="translate(-389.104 -33.589)" fill="none"/>
    </clipPath>
    <clipPath id="clip-path-8">
      <rect id="Rectangle_6436" data-name="Rectangle 6436" width="18.618" height="38.827" fill="none"/>
    </clipPath>
    <clipPath id="clip-path-9">
      <rect id="Rectangle_6438" data-name="Rectangle 6438" width="24.133" height="45.299" fill="none"/>
    </clipPath>
    <clipPath id="clip-path-11">
      <rect id="Rectangle_6439" data-name="Rectangle 6439" width="25.46" height="36.962" fill="none"/>
    </clipPath>
    <clipPath id="clip-path-12">
      <path id="Path_2904" data-name="Path 2904" d="M55.725,178.548c-24.207,5.465-27.112,55.331-28.542,55.631l-.276.116c-1.384.875-3.02,6.177-4.91,9.958a10.733,10.733,0,0,0-.577,7.885l.508,1.061c51.734,5.741,172.54,3.712,241.172,1.936l-3.066-19.8c-.876-14.709-15.377-42.374-15.377-42.374-13.049-22.293-69.164-29.971-69.164-29.971s-59.273,2.583-65.705-.391a5.038,5.038,0,0,0-2.027-.317c-11.093,0-52.036,16.27-52.036,16.27" transform="translate(-20.927 -162.278)" fill="none"/>
    </clipPath>
    <clipPath id="clip-path-14">
      <rect id="Rectangle_6441" data-name="Rectangle 6441" width="317.345" height="23.683" fill="none"/>
    </clipPath>
    <clipPath id="clip-path-15">
      <rect id="Rectangle_6442" data-name="Rectangle 6442" width="29.794" height="17.198" fill="none"/>
    </clipPath>
    <clipPath id="clip-path-16">
      <rect id="Rectangle_6443" data-name="Rectangle 6443" width="61.616" height="20.706" fill="none"/>
    </clipPath>
    <clipPath id="clip-path-17">
      <rect id="Rectangle_6444" data-name="Rectangle 6444" width="50.048" height="30.896" fill="none"/>
    </clipPath>
  </defs>
  <g id="Group_6989" data-name="Group 6989" clip-path="url(#clip-path)">
    <g id="Group_6949" data-name="Group 6949">
      <g id="Group_6948" data-name="Group 6948" clip-path="url(#clip-path)">
        <path id="Path_2864" data-name="Path 2864" d="M224.312,237.782c0,22.369-13.215,40.5-29.516,40.5s-29.515-18.135-29.515-40.5,13.214-40.5,29.515-40.5,29.516,18.134,29.516,40.5" transform="translate(-17.071 -20.375)" fill="#30312c"/>
        <path id="Path_2865" data-name="Path 2865" d="M226.638,238.545c0,17.975-6.776,32.546-15.134,32.546S196.37,256.52,196.37,238.545,203.146,206,211.5,206s15.134,14.572,15.134,32.546" transform="translate(-20.282 -21.276)" fill="#ceddd5"/>
        <path id="Path_2866" data-name="Path 2866" d="M461.5,220.729c0,33.417-10.31,60.507-23.027,60.507s-23.028-27.09-23.028-60.507,10.31-60.507,23.028-60.507,23.027,27.09,23.027,60.507" transform="translate(-42.908 -16.548)" fill="#30312c"/>
        <path id="Path_2867" data-name="Path 2867" d="M459.9,224.471c0,22.357-4.059,40.48-9.069,40.48s-9.068-18.124-9.068-40.48,4.06-40.48,9.068-40.48,9.069,18.124,9.069,40.48" transform="translate(-45.627 -19.003)" fill="#ceddd5"/>
        <path id="Path_2868" data-name="Path 2868" d="M459.95,227.5c0,14.989-2.722,27.139-6.079,27.139s-6.08-12.15-6.08-27.139,2.722-27.139,6.08-27.139,6.079,12.151,6.079,27.139" transform="translate(-46.249 -20.694)" fill="#30312c"/>
        <path id="Path_2869" data-name="Path 2869" d="M458.027,231.027c0,8.2-1.488,14.839-3.324,14.839s-3.324-6.644-3.324-14.839,1.489-14.839,3.324-14.839,3.324,6.644,3.324,14.839" transform="translate(-46.62 -22.329)" fill="#30312c"/>
        <path id="Path_2870" data-name="Path 2870" d="M459.749,223.782c0,9.885-2.865,17.9-6.4,17.9s-6.4-8.013-6.4-17.9,2.865-17.9,6.4-17.9,6.4,8.013,6.4,17.9" transform="translate(-46.162 -21.264)" fill="#30312c"/>
        <path id="Path_2871" data-name="Path 2871" d="M85.345,235.166c0,31.836-18.807,57.645-42.007,57.645S1.333,267,1.333,235.166s18.807-57.645,42.006-57.645,42.007,25.808,42.007,57.645" transform="translate(-0.138 -18.335)" fill="#30312c"/>
        <path id="Path_2872" data-name="Path 2872" d="M81.735,238.859c0,26.969-11.309,48.832-25.261,48.832s-25.261-21.863-25.261-48.832,11.31-48.832,25.261-48.832,25.261,21.862,25.261,48.832" transform="translate(-3.224 -19.627)" fill="#ceddd5"/>
        <path id="Path_2873" data-name="Path 2873" d="M77.509,243.922c0,18.272-6.569,33.083-14.673,33.083s-14.674-14.812-14.674-33.083,6.569-33.083,14.674-33.083,14.673,14.812,14.673,33.083" transform="translate(-4.974 -21.776)" fill="#30312c"/>
        <path id="Path_2874" data-name="Path 2874" d="M386.278,234.309c0,31.836-17.137,57.645-38.276,57.645s-38.275-25.808-38.275-57.645S326.862,176.664,348,176.664s38.276,25.808,38.276,57.645" transform="translate(-31.99 -18.246)" fill="#30312c"/>
        <path id="Path_2875" data-name="Path 2875" d="M384.3,235.907c0,22.63-8.307,40.975-18.555,40.975s-18.555-18.346-18.555-40.975,8.307-40.975,18.555-40.975S384.3,213.277,384.3,235.907" transform="translate(-35.859 -20.133)" fill="#ceddd5"/>
        <path id="Path_2876" data-name="Path 2876" d="M382.514,236.762c0,18.014-6.613,32.618-14.771,32.618s-14.771-14.6-14.771-32.618,6.613-32.618,14.771-32.618,14.771,14.6,14.771,32.618" transform="translate(-36.456 -21.085)" fill="#30312c"/>
        <path id="Path_2877" data-name="Path 2877" d="M376.583,238.792l7.017,2.156-.177-10.974-5.735-.937,4.85-6.32-2.123-10.089L375.446,220a16.139,16.139,0,0,0-4.159-7.211l-.963-14.856-8.85.178,2.637,15.035a18.426,18.426,0,0,0-4.154,8.157l-8.042-8.5-2.123,11.327,8.845,7.541c0,.042,0,.083,0,.126,0,.643.017,1.278.044,1.906l-9.241-.721v9.381l10.345-.708c.049.2.106.382.158.575l-9.8,8.452,3.54,9.027,9.126-10.832a10.916,10.916,0,0,0,1.289,1.558l-2.842,19.6,10.716.421-.324-19.99a11.872,11.872,0,0,0,1.8-2.347l7.142,8.577,2.478-11.151-6.811-5.038q.18-.841.325-1.72" transform="translate(-36.091 -20.444)" fill="#ceddd5"/>
        <path id="Path_2878" data-name="Path 2878" d="M456.593,234.2l2.877,2.039.331-12.821-2.791,2.271,2.539-10.92L458.5,202.579l-2.466,8.915c-.513-3.89-1.764-23.9-1.764-23.9l-4.667.252s-.774,20.9-1.256,25.225l-3.992-10.277L443.3,216.485s5.752,11.76,5.766,12.52l-5.942-1.823v11.34l5.135-.857c1.185-1.469-4.019,11.052-4.019,11.052l2.65,9.651,4.731-17.252c.2.716-1.829,20.343-1.829,20.343l4.478-1.072.473-18.419c.318-.763,1.94,11.449,1.94,11.449l2.129-11.591s-2.262-6.912-2.214-7.621" transform="translate(-45.767 -19.375)" fill="#ceddd5"/>
        <path id="Path_2879" data-name="Path 2879" d="M418.46,211.7s3.1-59.633-5.253-53.577c0,0-10.386,9.72-9.81,36.894,0,0,.59,32.564-12.959,35.153l-37.923,3.8s6.57-24.162-5.951-51.806c0,0-.968-47.673-14.775-28.356-.863,1.211-.968,1.923-2.408,5.42a157.774,157.774,0,0,0-11.172,63.63l-.076.257c-.135.605-.575,2.21-1.286,4.239l-.03.091c-1.166,3.3-3.134,7.63-5.919,10.4,0,0-20.015.712-49.96,1.483-68.626,1.772-189.436,3.8-241.166-1.938-4.936-.53-9.235-1.166-12.808-1.846a56.974,56.974,0,0,1-6.1-14.095,22.245,22.245,0,0,1-.8-7.419s.182-52.457,13.428-73.773c0,0-1.15-31.126,27.674-39.77,0,0,6.495-6.161,16.109-15,23.616-21.77,66.036-59.769,76.679-62.238,0,0,84.733-24.783,183.865-8.644,0,0,30.732-2.695,55.727,29.976a117.182,117.182,0,0,1,10.506,17.365c3.8,7.675,7.464,17.2,8.69,27.023a2.849,2.849,0,0,0,.2.212c1.574,1.7,12.459,13.581,14.4,18.046,2.241,5.162,7.691,31.474,10.189,42.828,0,0,13.927,44.07.938,61.647" transform="translate(0 -0.944)" fill="#e60019"/>
        <path id="Path_2880" data-name="Path 2880" d="M399.15,89.079c-2.953,1.371-30.82,14.063-57.7,17.346a.4.4,0,0,0-.13.042c-.707.369-23.172,2.588-36.326-6.6a.4.4,0,0,1,.008-.656c2.6-1.586,14.281-9.12,13.027-15.877a.408.408,0,0,0-.4-.324L64.942,85.467a.381.381,0,0,1-.276-.657C88.407,62.947,130.078,25.7,140.621,23.253c0,0,84.7-24.776,183.815-8.653.029.005,31.01-2.709,55.767,29.978,0,0,16.188,21.151,19.168,44.1a.391.391,0,0,1-.221.405" transform="translate(-6.666 -0.945)" fill="#e60019"/>
        <path id="Path_2881" data-name="Path 2881" d="M61.929,92.87l-7.124,6.363-4.611-1.545,1.152-6.133C60.466,76.467,74.01,81.55,74.01,81.55Z" transform="translate(-5.184 -8.338)" fill="#101010"/>
        <path id="Path_2882" data-name="Path 2882" d="M61.6,94.286l-6.8,6.13s-4.638-.329-4.611-1.545c.1-4.34,1.182-6.076,1.182-6.076C53.441,90.826,61.6,94.286,61.6,94.286" transform="translate(-5.184 -9.522)" fill="#050605"/>
        <path id="Path_2883" data-name="Path 2883" d="M392.135,29.487s-30.259-22.382-29.682,2.4c0,0,5.329,64.422,15.9,74.8,0,0,44.84-8.8,51.417-16.087,2.374-2.63-18.309-50.069-37.631-61.11" transform="translate(-37.435 -2.088)" fill="#343534"/>
        <path id="Path_2884" data-name="Path 2884" d="M368.472,50.839s-3.459-20.46,4.322-22.478c0,0,6.164-1.184,7.205.288A165.616,165.616,0,0,1,405.07,85.421s-16.426,10.374-23.63,4.9-12.968-39.481-12.968-39.481" transform="translate(-37.978 -2.883)" fill="#ceddd5"/>
        <path id="Path_2885" data-name="Path 2885" d="M390.854,33.655s25.744,14.217,32.66,46.3c0,0-12.68,4.8-14.025,3.65s-10.759-34.389-19.6-47.069c0,0-2.305-3.459.96-2.882" transform="translate(-40.188 -3.469)" fill="#ceddd5"/>
        <path id="Path_2886" data-name="Path 2886" d="M143.976,27.678c7.585-1.489,116.125-22.181,178.978-.1a4.838,4.838,0,0,1,3.208,4.48c.273,12.54.475,55.944-9.891,52,0,0-181.215-.882-231.278.825a4.882,4.882,0,0,1-3.637-8.311c14.366-14.506,42.984-41.734,61.8-48.663a5.131,5.131,0,0,1,.815-.226" transform="translate(-8.256 -1.803)" fill="#343534"/>
        <path id="Path_2887" data-name="Path 2887" d="M102.409,78.372a4.177,4.177,0,0,1-2.953-7.211c15.438-14.611,34.9-31.1,47.841-35.92,5.362-1.044,53.291-10.076,102.5-10.076,27.683,0,50.687,2.8,68.533,8.34a4.164,4.164,0,0,1,2.9,3.938c.173,15.408-.881,30-2.626,37.326a4.135,4.135,0,0,1-4.066,3.147c-12.028-.052-52.12-.211-95.776-.211-60.45,0-95.662.274-116.352.666" transform="translate(-10.136 -2.599)" fill="#ceddd5"/>
      </g>
    </g>
    <g id="Group_6954" data-name="Group 6954" transform="translate(88.004 22.566)">
      <g id="Group_6953" data-name="Group 6953" clip-path="url(#clip-path-3)">
        <g id="Group_6952" data-name="Group 6952" transform="translate(73.407 -22.566)" opacity="0.47">
          <g id="Group_6951" data-name="Group 6951">
            <g id="Group_6950" data-name="Group 6950" clip-path="url(#clip-path-4)">
              <rect id="Rectangle_6429" data-name="Rectangle 6429" width="134.8" height="11.823" transform="translate(0.001 101.234) rotate(-48.678)" fill="#fff"/>
              <rect id="Rectangle_6430" data-name="Rectangle 6430" width="134.799" height="30.778" transform="translate(27.745 102.676) rotate(-48.677)" fill="#fff"/>
            </g>
          </g>
        </g>
      </g>
    </g>
    <g id="Group_6959" data-name="Group 6959" transform="translate(329.728 25.028)">
      <g id="Group_6958" data-name="Group 6958" clip-path="url(#clip-path-5)">
        <g id="Group_6957" data-name="Group 6957" transform="translate(-13.392 -3.779)" opacity="0.44">
          <g id="Group_6956" data-name="Group 6956">
            <g id="Group_6955" data-name="Group 6955" clip-path="url(#clip-path-6)">
              <rect id="Rectangle_6432" data-name="Rectangle 6432" width="69.892" height="11.481" transform="matrix(0.373, -0.928, 0.928, 0.373, 0.001, 64.835)" fill="#fff"/>
              <rect id="Rectangle_6433" data-name="Rectangle 6433" width="69.893" height="6.405" transform="translate(17.96 65.982) rotate(-68.068)" fill="#fff"/>
            </g>
          </g>
        </g>
      </g>
    </g>
    <g id="Group_6967" data-name="Group 6967" transform="translate(348.916 30.12)">
      <g id="Group_6966" data-name="Group 6966" clip-path="url(#clip-path-7)">
        <g id="Group_6962" data-name="Group 6962" transform="translate(5.428 2.298)" opacity="0.47">
          <g id="Group_6961" data-name="Group 6961">
            <g id="Group_6960" data-name="Group 6960" clip-path="url(#clip-path-8)">
              <rect id="Rectangle_6435" data-name="Rectangle 6435" width="39.344" height="5.451" transform="translate(0.001 36.958) rotate(-69.94)" fill="#fff"/>
            </g>
          </g>
        </g>
        <g id="Group_6965" data-name="Group 6965" transform="translate(12.757 6.75)" opacity="0.47">
          <g id="Group_6964" data-name="Group 6964">
            <g id="Group_6963" data-name="Group 6963" clip-path="url(#clip-path-9)">
              <rect id="Rectangle_6437" data-name="Rectangle 6437" width="43.848" height="11.563" transform="translate(0 41.846) rotate(-72.619)" fill="#fff"/>
            </g>
          </g>
        </g>
      </g>
    </g>
    <g id="Group_6972" data-name="Group 6972">
      <g id="Group_6971" data-name="Group 6971" clip-path="url(#clip-path)">
        <path id="Path_2891" data-name="Path 2891" d="M373.783,99.457l2.426,6.916s39.481,4.515,49.759-8.07c0,0,2.69-28.626-39.96-19.019-4.686,1.055-.193,19.211-.193,19.211s-7.805,2.306-12.031.961" transform="translate(-38.606 -7.985)" fill="#101010"/>
        <path id="Path_2892" data-name="Path 2892" d="M458.137,177.867s4.207-13.569,7.407,5.985.711,39.581-.356,39.581.593-21.449-7.051-45.566" transform="translate(-47.318 -17.897)" fill="#101010"/>
        <path id="Path_2893" data-name="Path 2893" d="M364.867,178.582s9.688,2.429,19.376,19.643c0,0,1.629-33.508-7.97-33.508,0,0-7.5-.474-11.406,13.865" transform="translate(-37.685 -17.012)" fill="#101010"/>
        <path id="Path_2894" data-name="Path 2894" d="M464.827,228.3s2.963-57-5.013-53.692c0,0-4.231,2.971-8.379,18.021,0,0-2.135-14.946,6.247-22.563a4.962,4.962,0,0,1,8.1,2.535c3.2,12.721,9.061,42.14-.957,55.7" transform="translate(-46.601 -17.436)" fill="#e11221"/>
        <path id="Path_2895" data-name="Path 2895" d="M263.1,255.135c-68.633,1.775-189.439,3.8-241.173-1.937l-.508-1.06A10.736,10.736,0,0,1,22,244.253c1.89-3.781,3.527-9.084,4.91-9.959l.276-.116c1.429-.3,4.335-50.167,28.542-55.631,0,0,47.63-18.928,54.062-15.953s65.706.391,65.706.391,56.114,7.677,69.163,29.971c0,0,14.5,27.665,15.378,42.373Z" transform="translate(-2.161 -16.761)" fill="#343534"/>
        <path id="Path_2896" data-name="Path 2896" d="M325.2,183.958s16.426,42.939,0,53.026c0,0-26.224,11.527-27.666-19.6-.5-10.836,12.68-18.444,27.666-33.429" transform="translate(-30.729 -19)" fill="#30312c"/>
        <path id="Path_2897" data-name="Path 2897" d="M325.633,183.315s17.579,41.354-.432,53.6c0,0-26.224,11.527-27.666-19.6-.5-10.837,13.114-19.02,28.1-34.005" transform="translate(-30.729 -18.933)" fill="#e8414e"/>
        <path id="Path_2898" data-name="Path 2898" d="M325.887,183.315s17.147,41.21.72,51.3c0,0-25.167,12.968-26.608-18.155-.5-10.837,11.1-14.313,25.888-33.141" transform="translate(-30.983 -18.933)" fill="#30312c"/>
        <path id="Path_2899" data-name="Path 2899" d="M7.226,185.961c-.82,6.625-5.454,44.846-3.48,47.871,0,0,10.806,8.79,17.435-1.153,6.5-9.745-1.819-35-13.143-46.983a.472.472,0,0,0-.812.265" transform="translate(-0.337 -19.164)" fill="#e8414e"/>
        <path id="Path_2900" data-name="Path 2900" d="M7.946,194.185c-1.213,10.385-3.813,34.219-2.774,39.5a2.07,2.07,0,0,0,.879,1.281c2.352,1.654,11.14,6.953,16.839-1.6,5.986-8.977-1.03-28.135-11.041-40.362a2.22,2.22,0,0,0-3.9,1.18" transform="translate(-0.509 -19.852)" fill="#30312c"/>
        <path id="Path_2901" data-name="Path 2901" d="M50.128,116.1s248.6-18.507,257.443-11.207c0,0,11.021-7.821,8.46-13.376l-253.511,2.2S45.613,107.84,45.9,108.992s2.114,7.013,4.227,7.109" transform="translate(-4.74 -9.452)" fill="#e8414e"/>
        <path id="Path_2902" data-name="Path 2902" d="M443.995,215.309s.6,32.576-12.957,35.158l-37.922,3.807,1.778-14.694,36.721-4.374s5.464-.6,12.1-26.236a17.567,17.567,0,0,1,1.13-3.274A58.917,58.917,0,0,0,443.995,215.309Z" transform="translate(-40.602 -21.245)" fill="none" stroke="#e8414e" stroke-miterlimit="10" stroke-width="1"/>
        <g id="Group_6970" data-name="Group 6970" transform="translate(322.59 143.806)" style="mix-blend-mode: multiply;isolation: isolate">
          <g id="Group_6969" data-name="Group 6969">
            <g id="Group_6968" data-name="Group 6968" clip-path="url(#clip-path-11)">
              <path id="Path_2903" data-name="Path 2903" d="M359.746,196.027s3.125-43.056,20.147-34.545c3.555,1.778,7.466,10.074,3.911,35.849,0,0-1.659-35.019-9.836-32.353,0,0-4.74-1.185-14.221,31.049" transform="translate(-359.746 -160.369)" fill="#e11221"/>
            </g>
          </g>
        </g>
      </g>
    </g>
    <g id="Group_6974" data-name="Group 6974" transform="translate(18.765 145.517)">
      <g id="Group_6973" data-name="Group 6973" clip-path="url(#clip-path-12)">
        <line id="Line_6" data-name="Line 6" x2="298.234" y2="2.813" transform="translate(-16.371 1.991)" fill="none" stroke="#3b3c3b" stroke-miterlimit="10" stroke-width="1"/>
        <line id="Line_7" data-name="Line 7" x2="298.234" y2="2.814" transform="translate(-16.371 8.047)" fill="none" stroke="#3b3c3b" stroke-miterlimit="10" stroke-width="1"/>
        <line id="Line_8" data-name="Line 8" x2="298.234" y2="2.814" transform="translate(-16.371 14.102)" fill="none" stroke="#3b3c3b" stroke-miterlimit="10" stroke-width="1"/>
        <line id="Line_9" data-name="Line 9" x2="298.234" y2="2.813" transform="translate(-16.371 20.158)" fill="none" stroke="#3b3c3b" stroke-miterlimit="10" stroke-width="1"/>
        <line id="Line_10" data-name="Line 10" x2="298.234" y2="2.813" transform="translate(-16.371 26.214)" fill="none" stroke="#3b3c3b" stroke-miterlimit="10" stroke-width="1"/>
        <line id="Line_11" data-name="Line 11" x2="298.234" y2="2.813" transform="translate(-16.371 32.269)" fill="none" stroke="#3b3c3b" stroke-miterlimit="10" stroke-width="1"/>
        <line id="Line_12" data-name="Line 12" x2="298.234" y2="2.814" transform="translate(-16.371 38.325)" fill="none" stroke="#3b3c3b" stroke-miterlimit="10" stroke-width="1"/>
        <line id="Line_13" data-name="Line 13" x2="298.234" y2="2.814" transform="translate(-16.371 44.38)" fill="none" stroke="#3b3c3b" stroke-miterlimit="10" stroke-width="1"/>
        <line id="Line_14" data-name="Line 14" x2="298.234" y2="2.814" transform="translate(-16.371 50.436)" fill="none" stroke="#3b3c3b" stroke-miterlimit="10" stroke-width="1"/>
        <line id="Line_15" data-name="Line 15" x2="298.234" y2="2.814" transform="translate(-16.371 56.492)" fill="none" stroke="#3b3c3b" stroke-miterlimit="10" stroke-width="1"/>
        <line id="Line_16" data-name="Line 16" x2="298.234" y2="2.813" transform="translate(-16.371 62.547)" fill="none" stroke="#3b3c3b" stroke-miterlimit="10" stroke-width="1"/>
        <line id="Line_17" data-name="Line 17" x2="298.234" y2="2.814" transform="translate(-16.371 68.603)" fill="none" stroke="#3b3c3b" stroke-miterlimit="10" stroke-width="1"/>
        <line id="Line_18" data-name="Line 18" x2="298.234" y2="2.814" transform="translate(-16.371 74.659)" fill="none" stroke="#3b3c3b" stroke-miterlimit="10" stroke-width="1"/>
      </g>
    </g>
    <g id="Group_6988" data-name="Group 6988">
      <g id="Group_6987" data-name="Group 6987" clip-path="url(#clip-path)">
        <path id="Path_2905" data-name="Path 2905" d="M263.1,263.416c-68.633,1.776-189.439,3.8-241.173-1.937l-.508-1.06A10.736,10.736,0,0,1,22,252.535c1.89-3.781,3.527-9.084,4.91-9.959l.276-.116,30.548,8.921s154.465,3.459,158.5,2.306,43.8-10.076,43.8-10.076l1.729,10.651Z" transform="translate(-2.161 -25.042)" fill="#e8414e"/>
        <g id="Group_6977" data-name="Group 6977" transform="translate(0.861 216.542)" style="mix-blend-mode: multiply;isolation: isolate">
          <g id="Group_6976" data-name="Group 6976">
            <g id="Group_6975" data-name="Group 6975" clip-path="url(#clip-path-14)">
              <path id="Path_2906" data-name="Path 2906" d="M318.305,246.855l-.069.254-1.291,4.242-.022.091c-1.177,3.3-3.136,7.631-5.926,10.4,0,0-20.011.715-49.959,1.475-68.633,1.776-189.439,3.8-241.173-1.937-4.934-.53-9.222-1.152-12.8-1.844A56.848,56.848,0,0,1,.961,245.449c7.653,3.135,51.8,19.712,118.684,14.478,0,0,142.946.856,159.076-7.678,5.544-2.933,22.663-10.766,22.663-10.766s2.967,6.437,5,7.308c2.775,1.188,11.919-1.937,11.919-1.937" transform="translate(-0.961 -241.483)" fill="#5d0e12"/>
            </g>
          </g>
        </g>
        <path id="Path_2907" data-name="Path 2907" d="M187.842,215.587H102.156a13.833,13.833,0,1,1,0-27.665h85.686a13.833,13.833,0,0,1,0,27.665" transform="translate(-9.122 -19.409)" fill="#b2b7b4"/>
        <path id="Path_2908" data-name="Path 2908" d="M442.788,116.441s-15,25.812-95.861,7.1c0,0-1.377-6.6-3.649-9.629,0,0,29.733,9.266,84.507-15.245.2-.091.409-.181.606-.272,1.574,1.7,12.459,13.58,14.4,18.046" transform="translate(-35.455 -10.163)" fill="#e8414e"/>
        <path id="Path_2909" data-name="Path 2909" d="M15.021,155.1s-5,21.9,29.586,27.281c0,0,49.951-20.364,59.557-20.364,0,0-67.243-14.6-89.143-6.916" transform="translate(-1.526 -15.788)" fill="#e8414e"/>
        <path id="Path_2910" data-name="Path 2910" d="M21.446,245.411c1.89-3.781,3.528-9.084,4.91-9.959l.277-.116c1.429-.3,4.334-50.167,28.541-55.631,0,0,47.631-18.928,54.063-15.953s65.705.392,65.705.392,56.115,7.677,69.164,29.971c0,0,14.5,27.665,15.377,42.373l3.066,18.3,4.307.043-2.785-18.858c-1.057-15.562-15.274-42.839-15.985-44.186-14.021-23.954-70.137-31.885-72.518-32.209l-.411-.056-.414.018c-.238.01-23.985,1.036-42.756,1.036-17.143,0-20.414-.868-20.814-1.006a9.321,9.321,0,0,0-3.962-.743c-11.391,0-47.86,14.269-53.42,16.47-22.171,5.365-28.033,39.48-30.543,54.093-.193,1.115-.4,2.327-.563,3.17-1.377,1.459-2.3,3.678-3.562,6.709-.587,1.412-1.2,2.873-1.806,4.093-2.813,5.658-1.329,8.916-1.329,8.916l5.3.536a8.393,8.393,0,0,1,.16-7.4" transform="translate(-1.611 -16.404)" fill="#20201f"/>
        <path id="Path_2911" data-name="Path 2911" d="M240.949,174.221s51.872-3.074,75.312-16.138c0,0-53.417-24.207-122.965,3.458Z" transform="translate(-19.964 -15.315)" fill="#e8414e"/>
        <path id="Path_2912" data-name="Path 2912" d="M65.987,135.483s54.61,2.377,58.932.936c0,0,19.02-18.155,45.533-.288,0,0,72.909-.577,79.394-1.729,0,0-15.849,13.3-18.156,21.758,0,0-42.7-1.3-51.536,3.313s-37.848,34.918-67.049.721c0,0-34.775-7.253-41.306-6.484,0,0-1.962-6.693-5.812-18.228" transform="translate(-6.815 -13.248)" fill="#343534"/>
        <path id="Path_2913" data-name="Path 2913" d="M69.8,148.4l46.59,6.388s25.744,40.345,61.478.385l58.885-5.908,3.795-4.276s-65.273,5.572-68.443,7.3c0,0-26.513,35.542-48.415.288L68.076,142.446Z" transform="translate(-7.031 -14.712)" fill="#ceddd5"/>
        <path id="Path_2914" data-name="Path 2914" d="M169.536,155.977c0,6.26-7.054,11.335-15.754,11.335s-15.754-5.075-15.754-11.335,7.054-11.334,15.754-11.334,15.754,5.075,15.754,11.334" transform="translate(-14.256 -14.939)" fill="#ceddd5"/>
        <path id="Path_2915" data-name="Path 2915" d="M66.924,157.3s-36.5-7.676-44.191-4.224c0,0-6.146-.394-7.69-2.3,0,0-.59-16.109,9.81-28.371a36.594,36.594,0,0,1,17.864-11.4s6.056,10.7,11.929,17.077h.015c2.468,2.71,4.936,4.632,6.889,4.632,0,0,9.22,21.907,5.374,24.586" transform="translate(-1.553 -11.465)" fill="#ceddd5"/>
        <path id="Path_2916" data-name="Path 2916" d="M337.19,124.732s-5.768,36.879-25.933,28.235c0,0-43.223.575-62.252,2.891,0,0,5.268-17.713,26.493-28.446a70.9,70.9,0,0,1,17.894-6.147S321.43,113,323.55,109.926c0,0,11.552,2.376,13.564,10.188a10.01,10.01,0,0,1,.076,4.617" transform="translate(-25.718 -11.354)" fill="#ceddd5"/>
        <g id="Group_6980" data-name="Group 6980" transform="translate(23.299 99.541)" opacity="0.62">
          <g id="Group_6979" data-name="Group 6979">
            <g id="Group_6978" data-name="Group 6978" clip-path="url(#clip-path-15)">
              <path id="Path_2917" data-name="Path 2917" d="M55.776,128.083c-.757.046-20.65,1.333-29.794-5.677a36.6,36.6,0,0,1,17.864-11.4s6.056,10.7,11.93,17.077" transform="translate(-25.983 -111.006)" fill="#fff"/>
            </g>
          </g>
        </g>
        <g id="Group_6983" data-name="Group 6983" transform="translate(249.78 98.572)" opacity="0.57">
          <g id="Group_6982" data-name="Group 6982">
            <g id="Group_6981" data-name="Group 6981" clip-path="url(#clip-path-16)">
              <path id="Path_2918" data-name="Path 2918" d="M340.166,120.115,340,120.4s-29.143,17.183-61.45,7.01a70.943,70.943,0,0,1,17.895-6.147S324.482,113,326.6,109.926c0,0,11.552,2.376,13.565,10.188" transform="translate(-278.55 -109.926)" fill="#fff"/>
            </g>
          </g>
        </g>
        <path id="Path_2919" data-name="Path 2919" d="M418.694,107.792s22.478,44.667,2.882,120.747" transform="translate(-43.244 -11.133)" fill="none" stroke="#e8414e" stroke-miterlimit="10" stroke-width="1"/>
        <g id="Group_6986" data-name="Group 6986" transform="translate(352.514 202.133)" style="mix-blend-mode: multiply;isolation: isolate">
          <g id="Group_6985" data-name="Group 6985">
            <g id="Group_6984" data-name="Group 6984" clip-path="url(#clip-path-17)">
              <path id="Path_2920" data-name="Path 2920" d="M443.164,230.394c-1.268,9.383-4.38,20.633-12.126,22.109l-37.922,3.807s2.533-15.11,1.481-20.976l9.927-9.92s32,17.29,35.735,4.611c.646-2.191,1.66-1.8,2.9.369" transform="translate(-393.116 -225.415)" fill="#5d0e12"/>
            </g>
          </g>
        </g>
      </g>
    </g>
  </g>
</svg>
