<svg id="Group_74" data-name="Group 74" xmlns="http://www.w3.org/2000/svg" width="28.948" height="28.948" viewBox="0 0 28.948 28.948">
  <path id="Path_73" data-name="Path 73" d="M113.117,222.424a14.474,14.474,0,1,0-16.736,14.3V226.607H92.706v-4.183h3.675v-3.188c0-3.628,2.161-5.631,5.468-5.631a22.212,22.212,0,0,1,3.24.283v3.562h-1.825a2.092,2.092,0,0,0-2.359,2.26v2.715h4.014l-.641,4.183h-3.373v10.114A14.478,14.478,0,0,0,113.117,222.424Z" transform="translate(-84.17 -207.95)" fill="#626262"/>
  <path id="Path_74" data-name="Path 74" d="M135.543,247.323l.641-4.183H132.17v-2.715a2.092,2.092,0,0,1,2.359-2.26h1.825V234.6a22.212,22.212,0,0,0-3.24-.283c-3.306,0-5.468,2-5.468,5.631v3.189H123.97v4.183h3.675v10.114a14.639,14.639,0,0,0,4.524,0V247.323Z" transform="translate(-115.436 -228.666)" fill="#fff"/>
</svg>
