<svg id="Group_71" data-name="Group 71" xmlns="http://www.w3.org/2000/svg" width="28.948" height="28.948" viewBox="0 0 28.948 28.948">
  <ellipse id="Ellipse_4" data-name="Ellipse 4" cx="14.474" cy="14.474" rx="14.474" ry="14.474" transform="translate(0 0)" fill="#626262"/>
  <g id="Group_8" data-name="Group 8" transform="translate(5.358 5.361)">
    <g id="Group_7" data-name="Group 7">
      <path id="Path_43" data-name="Path 43" d="M566.605,234.59c2.434,0,2.721.009,3.682.054a5.069,5.069,0,0,1,1.692.313,3.017,3.017,0,0,1,1.73,1.73,5.068,5.068,0,0,1,.313,1.692c.043.961.054,1.25.054,3.682s-.009,2.721-.054,3.682a5.068,5.068,0,0,1-.313,1.692,3.017,3.017,0,0,1-1.73,1.73,5.069,5.069,0,0,1-1.692.313c-.961.043-1.248.054-3.682.054s-2.721-.009-3.682-.054a5.069,5.069,0,0,1-1.692-.313,3.017,3.017,0,0,1-1.73-1.73,5.068,5.068,0,0,1-.313-1.692c-.043-.961-.054-1.25-.054-3.682s.009-2.721.054-3.682a5.068,5.068,0,0,1,.313-1.692,3.017,3.017,0,0,1,1.73-1.73,5.069,5.069,0,0,1,1.692-.313c.961-.043,1.248-.054,3.682-.054m0-1.64c-2.474,0-2.785.011-3.757.056a6.671,6.671,0,0,0-2.213.425,4.508,4.508,0,0,0-1.615,1.051,4.444,4.444,0,0,0-1.051,1.615,6.7,6.7,0,0,0-.424,2.213c-.045.971-.056,1.282-.056,3.757s.011,2.785.056,3.757a6.67,6.67,0,0,0,.424,2.213,4.507,4.507,0,0,0,1.051,1.615,4.444,4.444,0,0,0,1.615,1.051,6.7,6.7,0,0,0,2.213.425c.971.045,1.282.056,3.757.056s2.785-.011,3.757-.056a6.671,6.671,0,0,0,2.213-.425,4.507,4.507,0,0,0,1.615-1.051,4.444,4.444,0,0,0,1.051-1.615,6.7,6.7,0,0,0,.425-2.213c.045-.971.056-1.282.056-3.757s-.011-2.785-.056-3.757a6.67,6.67,0,0,0-.425-2.213,4.507,4.507,0,0,0-1.051-1.615,4.444,4.444,0,0,0-1.615-1.051,6.7,6.7,0,0,0-2.213-.425c-.971-.047-1.282-.056-3.757-.056Z" transform="translate(-557.49 -232.95)" fill="#fff"/>
      <path id="Path_44" data-name="Path 44" d="M582.859,253.62a4.679,4.679,0,1,0,4.679,4.679A4.679,4.679,0,0,0,582.859,253.62Zm0,7.717A3.038,3.038,0,1,1,585.9,258.3,3.039,3.039,0,0,1,582.859,261.337Z" transform="translate(-573.744 -249.188)" fill="#fff"/>
      <ellipse id="Ellipse_5" data-name="Ellipse 5" cx="1.094" cy="1.094" rx="1.094" ry="1.094" transform="translate(12.887 3.154)" fill="#fff"/>
    </g>
  </g>
</svg>
