<svg id="Group_73" data-name="Group 73" xmlns="http://www.w3.org/2000/svg" width="28.948" height="28.948" viewBox="0 0 28.948 28.948">
  <ellipse id="Ellipse_12" data-name="Ellipse 12" cx="14.474" cy="14.474" rx="14.474" ry="14.474" transform="translate(0)" fill="#626262"/>
  <g id="Group_27" data-name="Group 27" transform="translate(6.12 5.275)">
    <g id="Group_26" data-name="Group 26">
      <path id="Path_51" data-name="Path 51" d="M816.9,456.582c.238-.268.433-.538.677-.768a3.719,3.719,0,0,1,2.676-1.055,6.164,6.164,0,0,1,1.681.2,3.29,3.29,0,0,1,2.335,2.455,10.28,10.28,0,0,1,.311,2.813c0,2-.006,4,0,6,0,.187-.052.236-.236.236q-1.544-.013-3.09,0c-.182,0-.221-.054-.221-.225q.01-2.853,0-5.708a5.192,5.192,0,0,0-.165-1.417,1.593,1.593,0,0,0-1.752-1.242,1.915,1.915,0,0,0-2.013,1.91,6.877,6.877,0,0,0-.054.892c0,1.851,0,3.7,0,5.552,0,.184-.045.238-.234.238q-1.557-.013-3.114,0c-.167,0-.214-.043-.214-.212q.006-5.494,0-10.989c0-.182.06-.223.232-.223.984.006,1.971.009,2.955,0,.182,0,.227.058.225.229C816.893,455.705,816.9,456.142,816.9,456.582Z" transform="translate(-807.424 -449.356)" fill="#fefefe"/>
      <path id="Path_52" data-name="Path 52" d="M790.037,461.774c0,1.812,0,3.624,0,5.436,0,.2-.049.262-.257.259-1.029-.011-2.059-.009-3.09,0-.165,0-.214-.041-.214-.21q.006-5.5,0-11.009c0-.152.036-.206.2-.206,1.044.006,2.089.009,3.133,0,.2,0,.227.075.227.249Q790.034,459.035,790.037,461.774Z" transform="translate(-786.206 -450.362)" fill="#fefefe"/>
      <path id="Path_53" data-name="Path 53" d="M789.315,431.608a2.057,2.057,0,1,1-2.054-2.048A2.062,2.062,0,0,1,789.315,431.608Z" transform="translate(-785.2 -429.56)" fill="#fefefe"/>
    </g>
  </g>
</svg>
