<svg xmlns="http://www.w3.org/2000/svg" width="89.199" height="132.904" viewBox="0 0 89.199 132.904">
  <g id="Component_50_1" data-name="Component 50 – 1" transform="translate(1 1)">
    <path id="Path_6646" data-name="Path 6646" d="M95.573,28.091c1.261,10.549-1.836,27.091-32.3,27.091-32.3,0-34.584-14.874-32.3-27.091C33.731,13.384,45.439,1,63.276,1S93.8,13.235,95.573,28.091" transform="translate(-19.735 -1)" fill="#fff"/>
    <path id="Path_6647" data-name="Path 6647" d="M95.573,28.091c1.261,10.549-1.836,27.091-32.3,27.091-32.3,0-34.584-14.874-32.3-27.091C33.731,13.384,45.439,1,63.276,1S93.8,13.235,95.573,28.091Z" transform="translate(-19.735 -1)" fill="none" stroke="#848484" stroke-miterlimit="10" stroke-width="2"/>
    <path id="Path_6648" data-name="Path 6648" d="M58.8,220.054C37.772,219.1,26.861,189.641,24.168,170s3.485-19.325,13.147-17.9a213.523,213.523,0,0,0,21.41,1.742,213.523,213.523,0,0,0,21.41-1.742c9.663-1.425,15.84-1.742,13.147,17.9S79.827,219.1,58.8,220.054" transform="translate(-15.393 -97.134)" fill="#fff"/>
    <path id="Path_6649" data-name="Path 6649" d="M58.8,220.054C37.772,219.1,26.861,189.641,24.168,170s3.485-19.325,13.147-17.9a213.523,213.523,0,0,0,21.41,1.742,213.523,213.523,0,0,0,21.41-1.742c9.663-1.425,15.84-1.742,13.147,17.9S79.827,219.1,58.8,220.054Z" transform="translate(-15.393 -97.134)" fill="none" stroke="#848484" stroke-miterlimit="10" stroke-width="2"/>
    <path id="Path_6650" data-name="Path 6650" d="M101.7,43.5c.9,6.134-1.308,15.752-23.008,15.752-23.009,0-24.637-8.649-23.009-15.752,1.961-8.551,10.3-15.752,23.009-15.752S100.433,34.864,101.7,43.5" transform="translate(-35.63 -18.084)" fill="#ed2225"/>
    <path id="Path_6651" data-name="Path 6651" d="M101.7,43.5c.9,6.134-1.308,15.752-23.008,15.752-23.009,0-24.637-8.649-23.009-15.752,1.961-8.551,10.3-15.752,23.009-15.752S100.433,34.864,101.7,43.5Z" transform="translate(-35.63 -18.084)" fill="none" stroke="#848484" stroke-miterlimit="10" stroke-width="2"/>
    <path id="Path_6652" data-name="Path 6652" d="M87.359,70.145c-.683,3.234-4.442,5.18-8.4,4.345s-6.607-4.133-5.924-7.368,4.442-5.179,8.4-4.344,6.607,4.134,5.924,7.367" transform="translate(-46.941 -40.332)" fill="#fff"/>
    <path id="Path_6653" data-name="Path 6653" d="M87.359,70.145c-.683,3.234-4.442,5.18-8.4,4.345s-6.607-4.133-5.924-7.368,4.442-5.179,8.4-4.344S88.042,66.912,87.359,70.145Z" transform="translate(-46.941 -40.332)" fill="#ffa7a7"/>
    <path id="Path_6654" data-name="Path 6654" d="M126.468,70.145c.683,3.234,4.442,5.18,8.4,4.345s6.607-4.133,5.924-7.368-4.442-5.179-8.4-4.344-6.607,4.134-5.924,7.367" transform="translate(-81.065 -40.332)" fill="#ffa7a7"/>
    <path id="Path_6655" data-name="Path 6655" d="M126.468,70.145c.683,3.234,4.442,5.18,8.4,4.345s6.607-4.133,5.924-7.368-4.442-5.179-8.4-4.344S125.785,66.912,126.468,70.145Z" transform="translate(-81.065 -40.332)" fill="none"/>
    <path id="Path_6656" data-name="Path 6656" d="M48.808,213.847c-15.631-3.546-22.3-14.957-25.026-25.8.1,1.576.276,3.328.544,5.28,2.693,19.642,13.6,49.1,34.632,50.055,16.881-.763,27.144-19.9,31.929-37.583-10.433,6.26-25.308,11.851-42.079,8.046" transform="translate(-15.55 -120.464)" fill="#d6d6d6"/>
    <path id="Path_6657" data-name="Path 6657" d="M191.626,191.269s-4.489-24.621,9.93-23.533c8.162.816,7.89,18.5.952,38.088s-12.243,20.949-13.875,16.187c-2.4-6.991,4.217-11.018,2.993-30.742" transform="translate(-120.499 -107.467)" fill="#fff"/>
    <path id="Path_6658" data-name="Path 6658" d="M191.626,191.269s-4.489-24.621,9.93-23.533c8.162.816,7.89,18.5.952,38.088s-12.243,20.949-13.875,16.187C186.237,215.02,192.851,210.993,191.626,191.269Z" transform="translate(-120.499 -107.467)" fill="none" stroke="#848484" stroke-miterlimit="10" stroke-width="2"/>
    <path id="Path_6659" data-name="Path 6659" d="M17.072,191.269s4.489-24.621-9.93-23.533c-8.162.816-7.89,18.5-.952,38.088s12.242,20.949,13.875,16.187c2.4-6.991-4.217-11.018-2.992-30.742" transform="translate(-1 -107.467)" fill="#fff"/>
    <path id="Path_6660" data-name="Path 6660" d="M17.072,191.269s4.489-24.621-9.93-23.533c-8.162.816-7.89,18.5-.952,38.088s12.242,20.949,13.875,16.187C22.461,215.02,15.847,210.993,17.072,191.269Z" transform="translate(-1 -107.467)" fill="none" stroke="#848484" stroke-miterlimit="10" stroke-width="2"/>
    <path id="Path_6661" data-name="Path 6661" d="M109.74,351.326c0,1.793-8.326,3.247-18.6,3.247s-18.6-1.454-18.6-3.247,8.326-3.247,18.6-3.247,18.6,1.454,18.6,3.247" transform="translate(-46.694 -222.67)" fill="#d6d6d6" opacity="0.24"/>
  </g>
</svg>
