<svg id="Group_72" data-name="Group 72" xmlns="http://www.w3.org/2000/svg" width="28.948" height="28.948" viewBox="0 0 28.948 28.948">
  <ellipse id="Ellipse_8" data-name="Ellipse 8" cx="14.474" cy="14.474" rx="14.474" ry="14.474" transform="translate(0 0)" fill="#626262"/>
  <g id="Group_16" data-name="Group 16" transform="translate(5.659 7.584)">
    <g id="Group_15" data-name="Group 15">
      <path id="Path_46" data-name="Path 46" d="M1013.11,258.544a10.861,10.861,0,0,0,10.936-10.936c0-.167,0-.332-.011-.5a7.833,7.833,0,0,0,1.917-1.99,7.628,7.628,0,0,1-2.207.6,3.859,3.859,0,0,0,1.69-2.125,7.693,7.693,0,0,1-2.44.933,3.846,3.846,0,0,0-6.649,2.629,3.948,3.948,0,0,0,.1.877,10.9,10.9,0,0,1-7.921-4.016,3.845,3.845,0,0,0,1.19,5.131,3.828,3.828,0,0,1-1.741-.48v.049a3.844,3.844,0,0,0,3.083,3.767,3.85,3.85,0,0,1-1.735.066,3.849,3.849,0,0,0,3.589,2.67,7.768,7.768,0,0,1-5.691,1.591,10.885,10.885,0,0,0,5.89,1.726" transform="translate(-1007.22 -243.32)" fill="#fff"/>
    </g>
  </g>
</svg>
